<?xml version="1.0" encoding="utf-8"?>
<!-- Generator: Adobe Illustrator 16.0.0, SVG Export Plug-In . SVG Version: 6.00 Build 0)  -->
<!DOCTYPE svg PUBLIC "-//W3C//DTD SVG 1.1//EN" "http://www.w3.org/Graphics/SVG/1.1/DTD/svg11.dtd">
<svg version="1.1" id="Layer_1" xmlns="http://www.w3.org/2000/svg" xmlns:xlink="http://www.w3.org/1999/xlink" x="0px" y="0px"
	 width="595.28px" height="841.89px" viewBox="0 0 595.28 841.89" enable-background="new 0 0 595.28 841.89" xml:space="preserve">
<g>
	<polygon fill="#89191A" points="314.287,585.54 314.287,509.172 324.578,509.172 297.545,447.731 270.506,509.172 280.804,509.172 
		280.804,585.54 103.475,585.54 103.475,507.907 116.434,507.907 51.616,315.047 28.55,315.047 28.55,236.77 167.146,236.77 
		167.146,315.68 152.929,315.68 194.526,439.266 228.838,355.684 218.403,355.684 218.403,278.045 376.688,278.045 376.688,355.684 
		366.247,355.684 400.564,439.266 442.162,315.68 427.938,315.68 427.938,236.77 566.547,236.77 566.547,315.047 543.469,315.047 
		478.651,507.907 491.61,507.907 491.61,585.54 	"/>
	<polygon fill="#FFFFFF" points="320.402,579.431 320.402,515.293 333.957,515.293 297.545,432.535 261.133,515.293 
		274.688,515.293 274.688,579.431 109.596,579.431 109.596,514.022 124.947,514.022 56.013,308.932 34.666,308.932 34.666,242.892 
		161.031,242.892 161.031,309.564 144.415,309.564 193.959,456.758 237.966,349.568 224.524,349.568 224.524,284.16 370.566,284.16 
		370.566,349.568 357.131,349.568 401.138,456.758 450.682,309.564 434.06,309.564 434.06,242.892 560.425,242.892 560.425,308.932 
		539.078,308.932 470.144,514.022 485.501,514.022 485.501,579.431 	"/>
	<polygon fill="#89191A" points="297.545,400.998 353.432,527.996 333.099,527.996 333.099,566.734 472.805,566.734 
		472.805,526.725 452.472,526.725 529.938,296.23 547.717,296.23 547.717,255.594 446.768,255.594 446.768,296.868 468.354,296.868 
		402.318,493.068 338.182,336.866 357.87,336.866 357.87,296.868 297.545,296.868 237.227,296.868 237.227,336.866 256.909,336.866 
		192.771,493.068 126.737,296.868 148.329,296.868 148.329,255.594 47.368,255.594 47.368,296.23 65.147,296.23 142.613,526.725 
		122.292,526.725 122.292,566.734 261.986,566.734 261.986,527.996 241.665,527.996 	"/>
</g>
</svg>
