<?xml version="1.0" encoding="utf-8"?>
<!-- Generator: Adobe Illustrator 17.0.0, SVG Export Plug-In . SVG Version: 6.00 Build 0)  -->
<!DOCTYPE svg PUBLIC "-//W3C//DTD SVG 1.1//EN" "http://www.w3.org/Graphics/SVG/1.1/DTD/svg11.dtd">
<svg version="1.1" id="Layer_1" xmlns="http://www.w3.org/2000/svg" xmlns:xlink="http://www.w3.org/1999/xlink" x="0px" y="0px"
	 width="120px" height="120px" viewBox="0 0 120 120" enable-background="new 0 0 120 120" xml:space="preserve">
<g>
	<g>
		<polyline fill="#DE2728" points="72.93,73.29 86.49,60.976 88.732,70.425 103.712,67.107 98.77,78.787 105.763,85.232 
			78.572,95.373 76.129,100.165 63.759,90.517 		"/>
		<path fill="#DE2728" d="M26.362,93.02L1.136,77.655l8.873-6.939L3.022,53.687l17.231,5.497l3.613-11.001L37.42,61.622
			L31.69,31.724l14.288,7.699l8.741-20.6l9.547,20.271l15.055-7.531l-4.022,16.162c5.054-2.099,8.293-2.088,8.293-2.088
			s-1.346-2.449-1.357-5.434c3.286-0.424,9.072,5.077,10.705,7.64c10.612,5.495,12.021,11.986,23.672,21.709
			c0.979,9.991-3.422,13.242-12.864,11.406c-1-0.441,0.09-2.466-2.044-4.348c0,0-6.272-2.916-9.466-2.015
			c0,0-7.086,3.004-10.621-0.265c5.262,14.672-1.432,23.198-5.285,26.848c0,0-21.68-16.973-53.328-2.5L26.362,93.02z"/>
		<path fill="#FFFFFF" d="M75.52,96.719c11.709-9.797-4.611-27.992,6.44-38.855c-2.422,4.695-2.412,11.744,1.319,13.639
			c4.586,2.336,7.97-0.359,12.711-1.571c-2.353,4.692,11.625,4.294,9.108,9.341c1.998,0.843,3.009-0.485,5.302,0.531
			c0.618-3.431-3.798-4.701-4.932-7.277c3.277,2.096,5.036,4.117,7.404,6.26c2.212-1.115,2.847-4.527,1.502-6.365
			c-0.268,1.332-0.843,2.061-1.888,1.855c-1.739-3.223-0.756-1.397-2.995-4.978c1.063,0.889,2.036,1.567,3.52,1.057
			c-1.617,1.571-0.011,3.384-0.151,2.804c0.283-1.935,1.825-1.84,2.449-3.093c-3.898-2.391-8.94-9.477-13.439-11.071
			c-1.805-0.641-4.565,1.727-6.069-0.811c0.346,0.587,2.01,0.069,1.897,0.021c-2.365-1.074-1.92-0.164-3.506-2.275
			c3.567-0.017,3.728-0.514,5.808,0.06c-5.64-9.139-10.349-5.778-13.948-4.228c-1.271-1.678,4.845-2.833,3.661-3.762
			c-17.914-2.346-22.777,11.951-22.777,11.951c-3.794,11.412,10.014,24.85,3.225,28.414c-26.604-9.875-41.815,5.975-41.815,5.975
			S51.811,81.516,75.52,96.719z"/>
		<path fill="#FFFFFF" d="M66.704,84.47c5.169-4.565-7.635-12.129-4.268-23.176c0,0,0.548-1.611,1.987-3.535
			c-5.98,1.704-20.08,14.187-21.697,26.231C48.342,82.391,57.412,81.016,66.704,84.47z"/>
		<path fill="#FFFFFF" d="M87.953,45.854l-3.098-0.257c0,0-1.565-2.01-1.115-4.048C85.693,42.346,83.628,44.766,87.953,45.854z"/>
	</g>
</g>
</svg>
