<?xml version="1.0" encoding="utf-8"?>
<!-- Generator: Adobe Illustrator 17.0.0, SVG Export Plug-In . SVG Version: 6.00 Build 0)  -->
<!DOCTYPE svg PUBLIC "-//W3C//DTD SVG 1.1//EN" "http://www.w3.org/Graphics/SVG/1.1/DTD/svg11.dtd">
<svg version="1.1" id="Layer_1" xmlns="http://www.w3.org/2000/svg" xmlns:xlink="http://www.w3.org/1999/xlink" x="0px" y="0px"
	 width="120px" height="120px" viewBox="0 0 120 120" enable-background="new 0 0 120 120" xml:space="preserve">
<g>
	<g>
		<polyline fill="#DE2728" points="72.598,71.968 84.809,60.878 86.828,69.388 100.318,66.4 95.867,76.918 102.165,82.722 
			77.678,91.854 75.478,96.169 64.339,87.481 		"/>
		<path fill="#DE2728" d="M30.662,89.735L7.945,75.898l7.99-6.249L9.643,54.315l15.517,4.95l3.254-9.907L40.62,61.46l-5.16-26.924
			l12.867,6.933l7.872-18.551l8.597,18.255l13.557-6.782l-3.622,14.554c4.551-1.89,7.468-1.88,7.468-1.88s-1.212-2.205-1.222-4.893
			c2.959-0.382,8.17,4.572,9.64,6.88c9.556,4.948,10.825,10.794,21.317,19.55c0.882,8.997-3.082,11.925-11.584,10.271
			c-0.901-0.397,0.081-2.221-1.841-3.915c0,0-5.648-2.626-8.524-1.815c0,0-6.381,2.705-9.565-0.239
			c4.739,13.213-1.29,20.89-4.759,24.177c0,0-19.523-15.285-48.023-2.251L30.662,89.735z"/>
		<path fill="#FFFFFF" d="M74.93,93.066c10.544-8.822-4.152-25.208,5.799-34.99c-2.181,4.228-2.172,10.576,1.188,12.282
			c4.13,2.104,7.177-0.323,11.447-1.415c-2.119,4.225,10.469,3.867,8.202,8.412c1.799,0.759,2.71-0.437,4.775,0.478
			c0.557-3.09-3.42-4.233-4.441-6.553c2.951,1.888,4.535,3.707,6.668,5.637c1.992-1.004,2.564-4.077,1.353-5.732
			c-0.241,1.2-0.759,1.856-1.7,1.67c-1.566-2.902-0.681-1.258-2.697-4.483c0.957,0.801,1.833,1.411,3.17,0.952
			c-1.456,1.415-0.01,3.047-0.136,2.525c0.255-1.743,1.643-1.657,2.205-2.785c-3.51-2.153-8.051-8.534-12.102-9.97
			c-1.625-0.577-4.111,1.555-5.465-0.73c0.312,0.529,1.81,0.062,1.708,0.019c-2.13-0.967-1.729-0.148-3.157-2.049
			c3.212-0.015,3.357-0.463,5.23,0.054c-5.079-8.23-9.32-5.203-12.561-3.807c-1.145-1.511,4.363-2.551,3.297-3.388
			C71.579,47.081,67.2,59.956,67.2,59.956c-3.417,10.277,9.018,22.378,2.904,25.588c-23.958-8.893-37.656,5.381-37.656,5.381
			S53.579,79.375,74.93,93.066z"/>
		<path fill="#FFFFFF" d="M66.991,82.035c4.655-4.111-6.876-10.923-3.843-20.871c0,0,0.493-1.451,1.789-3.183
			c-5.385,1.535-18.083,12.776-19.539,23.622C50.455,80.163,58.623,78.925,66.991,82.035z"/>
		<path fill="#FFFFFF" d="M86.126,47.261l-2.79-0.231c0,0-1.409-1.81-1.004-3.645C84.091,44.102,82.231,46.281,86.126,47.261z"/>
	</g>
</g>
</svg>
