<?xml version="1.0" encoding="utf-8"?>
<!-- Generator: Adobe Illustrator 17.0.0, SVG Export Plug-In . SVG Version: 6.00 Build 0)  -->
<!DOCTYPE svg PUBLIC "-//W3C//DTD SVG 1.1//EN" "http://www.w3.org/Graphics/SVG/1.1/DTD/svg11.dtd">
<svg version="1.1" id="Layer_1" xmlns="http://www.w3.org/2000/svg" xmlns:xlink="http://www.w3.org/1999/xlink" x="0px" y="0px"
	 width="120px" height="120px" viewBox="0 0 120 120" enable-background="new 0 0 120 120" xml:space="preserve">
<g>
	<path fill="#CEA154" d="M39.079,41.85c-0.789-0.429-1.3-0.965-0.749-1.92c0.314-0.545,0.078-0.965-0.32-1.338
		c-0.587-0.549-1.198-1.065-1.769-1.626c-1.732-1.709-2.185-3.641-1.251-5.759c0.905-2.055,2.592-3.011,4.803-3.1
		c1.636-0.066,3.163,0.352,4.641,1.018c0.286,0.129,0.874,0.583,0.884,0.028c0.004-0.485,0.861-1.26-0.239-1.626
		c-0.344-0.112-0.591-2.101-0.231-2.241c0.735-0.286,1.038-1.226,2.148-1.058c0.864,0.134,1.073,0.905,1.749,1.093
		c-0.326,0.683,0.536,1.601-0.585,2.208c-0.507,0.273,0.042,1.131,0.144,1.683c0.082,0.443,0.567,0.019,0.83-0.096
		c1.611-0.683,3.254-1.145,5.029-0.98c2.114,0.197,3.682,1.213,4.464,3.198c0.796,2.014,0.467,3.885-1.132,5.444
		c-0.454,0.441-0.885,0.91-1.367,1.315c-0.744,0.632-1.409,1.234-0.711,2.315c0.236,0.371-0.016,0.731-0.299,1.012
		c-0.199,0.195-0.551,0.253-0.543,0.63c0.008,0.449-0.026,0.827-0.661,0.808c-0.67-0.015-0.532-0.494-0.617-0.878
		c-0.033-0.153-0.166-0.28-0.254-0.411c-1.856-0.148-3.711-0.244-5.563,0.053c-0.138,0.375,0.141,0.844-0.261,1.162
		c-0.65,0.03-0.932-0.341-1.005-0.935c-0.09-0.097-0.181-0.186-0.27-0.28c-1.344-0.163-2.689-0.193-4.031,0.01
		c-0.174-0.004-0.346-0.004-0.519-0.004c-0.67-0.134-1.441-0.458-1.401,0.749c0.008,0.234-0.141,0.386-0.388,0.369
		C39.059,42.65,39.423,42.022,39.079,41.85z"/>
	<path fill="#D0A150" d="M43.416,42.352c0.125,0.007,0.345-0.023,0.36,0.022c0.596,1.682,2.024,1.056,3.186,1.16
		c0.17,0.017,0.333,0.034,0.502,0.047c0.032,0.029,0.065,0.081,0.096,0.081c1.995-0.038,3.993,0.034,5.985-0.087
		c0.452-0.01,0.914-0.08,1.358-0.026c0.831,0.109,1.275,0.467,0.63,1.312c-0.341,0.241-0.73,0.134-1.099,0.135
		c-4.999,0.01-9.999,0.003-14.998,0.01c-0.551,0-1.098,0.023-1.542-0.384c-0.25-0.818,0.171-1.09,0.897-1.086
		c1.347,0.009,2.692,0.032,4.039,0.049C43.298,43.302,42.803,42.562,43.416,42.352z"/>
	<path fill="#CB9F5A" d="M37.894,44.623c0.528,0.134,1.049,0.261,1.608,0.261c5.343-0.022,10.687-0.017,16.031-0.023
		c-0.364,0.429-0.861,0.259-1.3,0.259c-4.977,0.019-9.951,0.019-14.928,0C38.796,45.12,38.168,45.341,37.894,44.623z"/>
	<path fill="#CE9A54" d="M53.545,43.574c-0.883,0.367-5.177,0.367-6.081,0.007c0.458-0.017,0.916-0.047,1.375-0.047
		c0.567,0,1.026,0.029,1.107-0.799c0.063-0.622,0.936-0.549,0.983-0.202c0.178,1.362,1.106,0.933,1.87,0.968
		C53.047,43.513,53.296,43.551,53.545,43.574z"/>
	<path fill="#D3A05A" d="M47.482,41.619c1.219-0.623,2.523-0.153,3.781-0.278c0.672-0.066,1.396,0.135,2.019-0.936
		c-0.139,0.676-0.189,0.92-0.237,1.16C51.191,41.583,49.339,41.599,47.482,41.619z"/>
	<path fill="#D49F5B" d="M39.079,41.85c0.181,0.204,0.363,0.407,0.629,0.706c0.208-1.08,0.65-1.635,1.687-0.984
		c-0.555,0.097-1.326-0.151-1.262,0.885c0.024,0.384-0.339,0.424-0.64,0.373C38.857,42.724,39.109,42.225,39.079,41.85z"/>
	<path fill="#D49F5B" d="M41.915,41.576c1.343-0.391,2.688-0.375,4.031-0.01C44.603,41.572,43.26,41.572,41.915,41.576z"/>
	<path fill="#D89C57" d="M46.216,41.846c-0.05,0.725,1.057,0.208,1.005,0.935C46.374,43.019,46.041,42.707,46.216,41.846z"/>
	<path fill="#DA9657" d="M43.416,42.352c-0.308,0.356-0.071,0.974-0.586,1.234C43.131,43.224,42.501,42.423,43.416,42.352z"/>
	<path fill="#8A1C1C" d="M55.16,36.737c-0.197-2.946-1.754-3.947-4.82-3.164c-0.761,0.193-1.494,0.494-2.225,0.742
		c-0.059-0.112-0.097-0.153-0.094-0.193c0.053-3.225-0.185-3.028,2.95-3.951c1.04-0.308,2.109-0.555,3.224-0.299
		c1.833,0.42,2.896,1.372,3.139,2.859C57.598,34.356,56.91,35.67,55.16,36.737z"/>
	<path fill="#8A1B1C" d="M45.472,32.635c0.122,1.731,0.114,1.754-1.3,1.228c-0.964-0.36-1.948-0.494-2.966-0.449
		c-1.743,0.076-2.46,0.704-2.803,2.445c-0.046,0.229,0.076,0.549-0.272,0.615c-0.277,0.049-0.456-0.173-0.642-0.337
		c-1.227-1.071-1.636-2.683-1.045-4.101c0.582-1.4,2.377-2.428,4.034-2.263c1.13,0.116,2.234,0.359,3.314,0.73
		C44.913,30.893,45.853,31.363,45.472,32.635z"/>
</g>
<path fill="#8A1C1C" d="M11.08,95.672c0.241,0,34.867,0,34.867,0l2.539-5.227c0,0-16.742,1.035-29.501,0.747
	c0,0-1.021-36.746,1.419-55.503c0-2.244-2.532-2.116-2.532-2.116l-5.553,0.172c0,0-1.095-0.543-1.031,1.926
	c0.064,2.469,1.268,32.865-0.711,57.584C10.325,95.156,10.394,95.684,11.08,95.672z"/>
<path fill="#8A1C1C" d="M52.684,95.794h6.594c0,0,0.353-0.98,0.71-2.452c9.632-27.737,9.707-27.789,19.415-48.152
	c6.872,15.801,19.803,48.152,19.803,48.152s0.604,2.189,1.869,2.189h8.482L82.794,33.166c-0.21-0.823-1.786-0.868-2.278,0.017
	C80.516,33.183,62.358,74.282,52.684,95.794z"/>
</svg>
