<?xml version="1.0" encoding="utf-8"?>
<!-- Generator: Adobe Illustrator 17.0.0, SVG Export Plug-In . SVG Version: 6.00 Build 0)  -->
<!DOCTYPE svg PUBLIC "-//W3C//DTD SVG 1.1//EN" "http://www.w3.org/Graphics/SVG/1.1/DTD/svg11.dtd">
<svg version="1.1" id="Layer_1" xmlns="http://www.w3.org/2000/svg" xmlns:xlink="http://www.w3.org/1999/xlink" x="0px" y="0px"
	 width="120px" height="120px" viewBox="0 0 120 120" enable-background="new 0 0 120 120" xml:space="preserve">
<g>
	<path fill="#CEA154" d="M34.791,38.953c-0.915-0.497-1.507-1.119-0.868-2.226c0.364-0.632,0.091-1.119-0.371-1.552
		c-0.681-0.637-1.389-1.235-2.051-1.886c-2.008-1.982-2.534-4.222-1.451-6.679c1.05-2.383,3.006-3.492,5.57-3.595
		c1.897-0.076,3.668,0.408,5.382,1.18c0.332,0.15,1.013,0.676,1.025,0.032c0.005-0.563,0.998-1.461-0.277-1.886
		c-0.399-0.13-0.685-2.437-0.268-2.599c0.852-0.332,1.204-1.422,2.491-1.227c1.002,0.155,1.244,1.05,2.028,1.267
		c-0.378,0.792,0.622,1.857-0.678,2.56c-0.588,0.317,0.049,1.311,0.167,1.952c0.095,0.514,0.658,0.022,0.963-0.111
		c1.868-0.792,3.774-1.328,5.832-1.136c2.451,0.229,4.27,1.407,5.177,3.709c0.923,2.336,0.542,4.505-1.313,6.313
		c-0.526,0.511-1.026,1.055-1.585,1.525c-0.863,0.733-1.634,1.431-0.824,2.685c0.274,0.43-0.018,0.848-0.347,1.173
		c-0.231,0.226-0.639,0.293-0.63,0.731c0.009,0.521-0.03,0.959-0.766,0.937c-0.777-0.017-0.617-0.573-0.716-1.018
		c-0.038-0.177-0.193-0.325-0.295-0.477c-2.152-0.172-4.304-0.283-6.451,0.062c-0.16,0.435,0.163,0.979-0.303,1.348
		c-0.754,0.035-1.081-0.396-1.166-1.084c-0.104-0.113-0.21-0.216-0.313-0.325c-1.558-0.189-3.118-0.224-4.675,0.012
		c-0.202-0.005-0.401-0.005-0.602-0.005c-0.777-0.155-1.671-0.531-1.625,0.868c0.009,0.271-0.164,0.448-0.45,0.428
		C34.768,39.88,35.19,39.152,34.791,38.953z"/>
	<path fill="#D0A150" d="M39.82,39.535c0.145,0.008,0.4-0.027,0.417,0.025c0.691,1.95,2.347,1.225,3.695,1.345
		c0.197,0.02,0.386,0.039,0.582,0.054c0.037,0.034,0.075,0.094,0.111,0.094c2.314-0.044,4.631,0.039,6.941-0.101
		c0.524-0.012,1.06-0.093,1.575-0.03c0.964,0.126,1.478,0.541,0.731,1.522c-0.396,0.28-0.847,0.155-1.275,0.157
		c-5.797,0.012-11.595,0.003-17.392,0.012c-0.639,0-1.273,0.027-1.788-0.445c-0.29-0.949,0.198-1.264,1.04-1.259
		c1.562,0.01,3.122,0.037,4.684,0.057C39.684,40.637,39.109,39.779,39.82,39.535z"/>
	<path fill="#CB9F5A" d="M33.417,42.169c0.612,0.155,1.217,0.303,1.865,0.303c6.196-0.025,12.393-0.02,18.59-0.027
		c-0.422,0.497-0.999,0.3-1.508,0.3c-5.772,0.022-11.54,0.022-17.311,0C34.463,42.745,33.734,43.001,33.417,42.169z"/>
	<path fill="#CE9A54" d="M51.566,40.952c-1.024,0.426-6.003,0.426-7.052,0.008c0.531-0.02,1.062-0.054,1.595-0.054
		c0.657,0,1.19,0.034,1.284-0.927c0.073-0.721,1.086-0.637,1.14-0.234c0.206,1.579,1.282,1.082,2.169,1.122
		C50.989,40.881,51.278,40.925,51.566,40.952z"/>
	<path fill="#D3A05A" d="M44.536,38.685c1.414-0.723,2.926-0.177,4.385-0.322c0.779-0.076,1.619,0.157,2.341-1.085
		c-0.161,0.784-0.219,1.067-0.275,1.345C48.837,38.643,46.689,38.662,44.536,38.685z"/>
	<path fill="#D49F5B" d="M34.791,38.953c0.21,0.236,0.421,0.472,0.729,0.819c0.241-1.252,0.754-1.896,1.956-1.141
		c-0.644,0.113-1.538-0.175-1.463,1.026c0.028,0.445-0.393,0.492-0.742,0.433C34.533,39.966,34.826,39.388,34.791,38.953z"/>
	<path fill="#D49F5B" d="M38.08,38.635c1.557-0.453,3.117-0.435,4.675-0.012C41.197,38.63,39.639,38.63,38.08,38.635z"/>
	<path fill="#D89C57" d="M43.068,38.948c-0.058,0.841,1.226,0.241,1.166,1.084C43.251,40.308,42.865,39.946,43.068,38.948z"/>
	<path fill="#DA9657" d="M39.82,39.535c-0.357,0.413-0.082,1.129-0.68,1.431C39.49,40.546,38.759,39.617,39.82,39.535z"/>
	<path fill="#8A1C1C" d="M53.439,33.023c-0.228-3.416-2.034-4.577-5.59-3.669c-0.882,0.224-1.733,0.573-2.58,0.861
		c-0.069-0.13-0.112-0.177-0.109-0.224c0.061-3.74-0.215-3.512,3.421-4.582c1.206-0.357,2.446-0.644,3.739-0.347
		c2.126,0.487,3.358,1.591,3.64,3.315C56.267,30.262,55.469,31.786,53.439,33.023z"/>
	<path fill="#8A1B1C" d="M42.205,28.267c0.142,2.007,0.132,2.034-1.507,1.424c-1.118-0.418-2.259-0.573-3.439-0.521
		c-2.021,0.088-2.853,0.816-3.25,2.835c-0.053,0.266,0.088,0.637-0.316,0.713c-0.321,0.057-0.529-0.201-0.744-0.391
		c-1.423-1.242-1.897-3.111-1.212-4.756c0.675-1.623,2.756-2.816,4.678-2.624c1.31,0.135,2.591,0.416,3.843,0.846
		C41.556,26.246,42.646,26.792,42.205,28.267z"/>
</g>
<path fill="#8A1C1C" d="M2.322,101.367c0.279,0,40.433,0,40.433,0l2.944-6.062c0,0-19.415,1.2-34.211,0.866
	c0,0-1.184-42.612,1.645-64.364c0-2.602-2.936-2.454-2.936-2.454l-6.439,0.199c0,0-1.27-0.63-1.196,2.233
	c0.074,2.863,1.471,38.112-0.824,66.777C1.447,100.769,1.526,101.381,2.322,101.367z"/>
<path fill="#8A1C1C" d="M50.568,101.509h7.647c0,0,0.409-1.136,0.823-2.843c11.17-32.165,11.257-32.226,22.515-55.84
	c7.969,18.324,22.965,55.84,22.965,55.84s0.7,2.538,2.167,2.538h9.836L85.485,28.882c-0.243-0.954-2.071-1.006-2.642,0.02
	C82.843,28.902,61.787,76.562,50.568,101.509z"/>
</svg>
