<?xml version="1.0" encoding="utf-8"?>
<!-- Generator: Adobe Illustrator 17.0.0, SVG Export Plug-In . SVG Version: 6.00 Build 0)  -->
<!DOCTYPE svg PUBLIC "-//W3C//DTD SVG 1.1//EN" "http://www.w3.org/Graphics/SVG/1.1/DTD/svg11.dtd">
<svg version="1.1" id="Layer_1" xmlns="http://www.w3.org/2000/svg" xmlns:xlink="http://www.w3.org/1999/xlink" x="0px" y="0px"
	 width="120px" height="120px" viewBox="0 0 120 120" enable-background="new 0 0 120 120" xml:space="preserve">
<path fill="#2A307E" d="M90.177,74.958c-1.698,3.116-3.395,6.23-5.087,9.346c-3.644,6.722-7.16,13.512-10.249,20.51
	c-0.156,0.351-0.207,0.826-0.776,0.818c-0.607-0.013-0.667-0.544-0.847-0.924c-4.691-9.942-9.918-19.619-14.825-29.455
	c-0.03-0.06-0.12-0.096-0.29-0.224c-0.484,1.473-0.478,2.971-0.637,4.428c-0.672,6.14-1.321,12.28-1.913,18.427
	c-0.23,2.359-0.339,4.738-0.404,7.105c-0.025,0.886-0.361,1.003-1.116,0.94c-0.853-0.071-1.725-0.074-2.575,0.019
	c-0.828,0.09-0.995-0.213-0.877-0.953c0.708-4.439,1.432-8.879,2.08-13.33c0.809-5.541,1.575-11.088,2.308-16.64
	c0.511-3.852,0.928-7.712,1.424-11.566c0.041-0.312-0.222-0.886,0.478-0.932c0.569-0.035,0.952,0.044,1.252,0.667
	c4.073,8.474,8.442,16.798,12.892,25.084c1.37,2.551,2.764,5.095,4.227,7.791c1.602-2.966,3.122-5.796,4.647-8.619
	c4.351-8.056,8.709-16.109,13.058-24.165c0.243-0.448,0.467-0.883,1.096-0.76c0.678,0.134,0.454,0.694,0.498,1.091
	c1.055,9.22,2.11,18.439,3.132,27.659c0.514,4.633,1.06,9.261,1.755,13.873c0.106,0.702-0.153,0.85-0.79,0.785
	c-1.468-0.153-2.944-0.133-4.415-0.008c-0.606,0.052-0.864-0.117-0.918-0.782c-0.55-6.686-1.113-13.37-1.722-20.048
	c-0.312-3.368-0.725-6.725-1.091-10.087C90.385,74.991,90.281,74.975,90.177,74.958z"/>
<path fill="#2A307E" d="M51.369,57.565c-0.104-0.438,0.202-0.768,0.366-1.12c6.314-13.696,12.448-27.473,18.446-41.311
	c0.219-0.503,0.284-1.162,1.183-1.159c0.889,0.006,0.949,0.612,1.176,1.151c5.713,13.649,11.282,27.361,17.47,40.807
	c0.251,0.544,0.498,1.086,0.776,1.692c-2.168,0-4.21-0.044-6.246,0.025c-0.648,0.024-0.725-0.318-0.883-0.746
	C79.556,45.608,74.75,34.597,70.131,23.51c-0.03-0.071-0.087-0.137-0.235-0.361c-0.481,1.099-0.935,2.105-1.367,3.116
	c-4.089,9.54-8.335,19.012-11.618,28.875c-0.265,0.806-0.303,1.93-0.861,2.329c-0.566,0.405-1.643,0.096-2.496,0.096
	C52.832,57.568,52.108,57.565,51.369,57.565z"/>
<path fill="#2A307E" d="M35.338,105.902c-3.846-0.153-7.693-0.355-11.539-0.161c-0.935,0.046-1.06-0.331-1.003-1.148
	c0.818-11.402,0.807-22.823,0.708-34.244c-0.017-2.045-0.109-4.089-0.219-6.134c-0.044-0.853,0.055-1.29,1.11-1.093
	c1.448,0.268,2.944,0.241,4.406,0.071c1.008-0.117,1.175,0.241,1.11,1.135c-0.277,3.589-0.553,7.181-0.733,10.776
	c-0.398,7.853-0.398,15.714-0.277,23.573c0.016,1.222-0.405,2.849,0.213,3.559c0.705,0.812,2.375,0.25,3.625,0.258
	c4.869,0.035,9.742,0.084,14.598-0.383c1.006-0.096,1.052,0.273,0.932,1.072c-0.423,2.824-0.408,2.777-3.229,2.731
	C41.809,105.859,38.572,105.902,35.338,105.902z"/>
<path fill="#2A307E" d="M23.314,14.792c1.753,0.096,3.71,0.278,5.667,0.068c0.634-0.066,0.713,0.292,0.665,0.847
	c-0.545,6.16-0.933,12.332-1.031,18.516c-0.106,6.386-0.03,12.777-0.05,19.165c-0.005,0.613,0.164,0.823,0.82,0.819
	c6.183-0.039,12.37,0.106,18.537-0.493c0.727-0.068,1.041-0.046,0.555,0.785c-0.574,0.983-0.771,2.342-1.574,2.982
	c-0.776,0.618-2.116,0.085-3.21,0.085c-6.675,0.01-13.345-0.309-20.021-0.142c-0.874,0.022-1.175-0.125-1.115-1.148
	c0.579-10.262,0.847-20.529,0.759-30.81C23.29,21.946,23.314,18.431,23.314,14.792z"/>
</svg>
