<?xml version="1.0" encoding="utf-8"?>
<!-- Generator: Adobe Illustrator 17.0.0, SVG Export Plug-In . SVG Version: 6.00 Build 0)  -->
<!DOCTYPE svg PUBLIC "-//W3C//DTD SVG 1.1//EN" "http://www.w3.org/Graphics/SVG/1.1/DTD/svg11.dtd">
<svg version="1.1" id="Layer_1" xmlns="http://www.w3.org/2000/svg" xmlns:xlink="http://www.w3.org/1999/xlink" x="0px" y="0px"
	 width="120px" height="120px" viewBox="0 0 120 120" enable-background="new 0 0 120 120" xml:space="preserve">
<g>
	<path fill="#F9D7DA" d="M61.051,9.383c0.004,0.02,0.004,0.046,0.004,0.059c-0.066,0.072-0.164,0.085-0.246,0.078
		c-0.826,0.006-1.649,0.013-2.465,0c-0.065,0-0.124-0.007-0.17-0.046c-0.046-0.02-0.059-0.052-0.033-0.091
		C59.105,9.383,60.081,9.383,61.051,9.383z"/>
	<path fill="#F1A5A7" d="M8.492,61.279c0.006-0.633,0.006-1.273,0.006-1.906c0.039-0.02,0.075-0.006,0.095,0.033
		c0.075,0.607,0.075,1.221,0.003,1.835C8.57,61.286,8.531,61.299,8.492,61.279z"/>
	<path fill="#EA696B" d="M110.384,59.373c0,0.64,0.003,1.273,0,1.906c-0.039,0.007-0.072,0-0.092-0.046
		c-0.091-0.601-0.091-1.208,0-1.808C110.319,59.392,110.345,59.379,110.384,59.373z"/>
	<path fill="#F3DBDF" d="M8.557,62.467c-0.013,0-0.039,0-0.059,0c0-0.242,0.003-0.483,0-0.718c0.039-0.013,0.072-0.006,0.092,0.026
		C8.655,62.004,8.688,62.239,8.557,62.467z"/>
	<path fill="#F0D9DA" d="M110.345,57.76c0.01,0,0.029,0.007,0.039,0.007c0,0.222,0,0.45,0,0.666
		c-0.026,0.013-0.059,0.007-0.078-0.013c-0.085-0.202-0.065-0.392-0.033-0.594C110.293,57.799,110.319,57.773,110.345,57.76z"/>
	<path fill="#EED3D4" d="M110.384,62.885c-0.02,0-0.039,0-0.059,0c-0.127-0.196-0.098-0.418-0.033-0.62
		c0.026-0.046,0.059-0.052,0.092-0.033C110.391,62.447,110.384,62.67,110.384,62.885z"/>
	<path fill="#EE9294" d="M110.384,59.373c-0.016,0.007-0.033,0.007-0.052,0.007c-0.013-0.013-0.026-0.026-0.033-0.033
		c-0.078-0.209-0.078-0.398,0-0.601c0.026-0.033,0.052-0.039,0.085-0.02C110.391,58.942,110.384,59.157,110.384,59.373z"/>
	<path fill="#EED4D8" d="M8.498,58.302c0.02,0,0.039-0.007,0.059,0c0.124,0.183,0.091,0.366,0.036,0.568
		c-0.023,0.026-0.055,0.039-0.095,0.02C8.502,58.694,8.498,58.498,8.498,58.302z"/>
	<path fill="#F7C9CB" d="M8.498,58.89c0.016,0.007,0.033,0.007,0.056,0c0.117,0.163,0.121,0.326-0.007,0.483
		c-0.016-0.006-0.029,0-0.049,0C8.502,59.209,8.498,59.053,8.498,58.89z"/>
	<path fill="#F4C5C7" d="M8.551,61.756H8.525l-0.026-0.007c0-0.157,0-0.313-0.006-0.47c0.026,0,0.033,0,0.059,0
		C8.675,61.436,8.668,61.592,8.551,61.756z"/>
	<path fill="#EE8489" d="M110.332,61.279c0.019,0.007,0.039,0.007,0.052,0c0,0.163,0.006,0.32,0,0.483
		c-0.026,0.013-0.059,0.006-0.085-0.013c-0.065-0.144-0.065-0.287-0.006-0.431C110.306,61.312,110.319,61.299,110.332,61.279z"/>
	<path fill="#F2AAAE" d="M110.338,61.762c0.013,0,0.033,0,0.046,0c0,0.15,0,0.313,0,0.47c-0.013,0-0.033,0.013-0.046,0.006
		C110.208,62.076,110.208,61.925,110.338,61.762z"/>
	<path fill="#F5C0C2" d="M110.384,58.726c-0.02-0.006-0.026-0.006-0.052-0.006c-0.092-0.098-0.092-0.196,0.006-0.294
		c0.02,0,0.033,0,0.046,0.007C110.384,58.524,110.384,58.622,110.384,58.726z"/>
	<path fill="#F1D8DA" d="M58.142,9.383c0,0.013-0.006,0.039,0,0.059c-0.098,0.092-0.209,0.092-0.3,0c0-0.02,0-0.039,0-0.059
		C57.94,9.383,58.038,9.376,58.142,9.383z"/>
	<path fill="#E5373B" d="M110.332,59.379c0,0.633,0,1.266,0,1.9l-0.013,0.007c-0.059,0.548-0.006,1.103-0.02,1.658
		c-0.016,0.19,0.026,0.398-0.023,0.594c-0.346,5.491-1.538,10.798-3.601,15.897c-1.593,3.956-3.663,7.658-6.202,11.085
		c-1.384,1.867-2.873,3.65-4.505,5.321c-0.046,0.046-0.065,0.092-0.111,0.137c-0.059,0.124-0.15,0.228-0.248,0.32
		c-0.046,0.046-0.098,0.092-0.144,0.137c-0.098,0.104-0.209,0.176-0.326,0.255l0,0c-0.033,0.117-0.111,0.196-0.235,0.235l0,0
		c-0.046,0.085-0.078,0.163-0.189,0.17c-1.077,1.012-2.174,1.991-3.32,2.912c-3.091,2.487-6.414,4.59-9.989,6.3
		c-2.451,1.175-4.984,2.148-7.59,2.912c-2.363,0.698-4.763,1.221-7.194,1.554c-3.277,0.457-6.568,0.607-9.878,0.424
		c-3.016-0.163-5.993-0.561-8.931-1.253c-3.734-0.882-7.325-2.161-10.759-3.852c-3.95-1.932-7.58-4.335-10.903-7.214
		c-3.134-2.709-5.902-5.765-8.298-9.146c-2.21-3.127-4.048-6.463-5.51-9.995c-1.332-3.232-2.311-6.575-2.951-10.008
		c-0.398-2.168-0.653-4.348-0.784-6.555c-0.039-0.216-0.01-0.444-0.02-0.666c0-1.436,0-2.873,0-4.302
		c0.006-0.222-0.02-0.45,0.02-0.672c0.209-3.728,0.796-7.384,1.815-10.968c1.084-3.865,2.602-7.547,4.56-11.04
		c2.817-5.033,6.388-9.44,10.684-13.279c2.148-1.906,4.452-3.623,6.888-5.138c2.683-1.671,5.491-3.082,8.432-4.224
		c2.197-0.855,4.443-1.547,6.734-2.089c1.573-0.359,3.16-0.666,4.759-0.882c1.482-0.209,2.971-0.34,4.466-0.418
		c0.287-0.052,0.568-0.013,0.849-0.02c1.097,0,2.2,0,3.297,0c0.284,0.013,0.571-0.026,0.849,0.02
		c2.22,0.105,4.407,0.346,6.581,0.744c0.659,0.118,1.306,0.294,1.958,0.418c1.286,0.255,2.533,0.607,3.793,0.973
		c1.815,0.535,3.597,1.195,5.341,1.945c2.931,1.267,5.713,2.794,8.35,4.59c3.859,2.611,7.286,5.693,10.309,9.244
		c3.114,3.656,5.654,7.691,7.638,12.071c1.593,3.525,2.752,7.188,3.499,10.981c0.444,2.213,0.718,4.459,0.869,6.712
		c0.039,0.202,0.006,0.405,0.019,0.601c0.013,0.535-0.039,1.071,0.026,1.606L110.332,59.379L110.332,59.379z"/>
	<path fill="#C04A4D" d="M8.616,58.165c-0.006,1.456-0.006,2.918,0,4.368c-0.033,0.013-0.046,0.006-0.055-0.02
		c0.01-0.013,0.01-0.033-0.003-0.045c0.003-0.242,0-0.477-0.007-0.712c0-0.163,0-0.32,0-0.477c-0.006-0.633,0-1.273-0.003-1.906
		c0-0.157,0.003-0.32,0.007-0.483c0.003-0.189,0.003-0.385,0.003-0.587c0.006-0.039,0.006-0.072,0.006-0.105
		C8.57,58.165,8.583,58.158,8.616,58.165z"/>
	<path fill="#C3484C" d="M110.273,62.963c0-0.503,0-1.012,0-1.521c0-0.052,0-0.118,0.046-0.157c0.013,0.157,0.013,0.32,0.02,0.477
		c0,0.163-0.006,0.32,0,0.476c-0.006,0.216-0.013,0.431-0.013,0.646c-0.006,0.026-0.013,0.033-0.01,0.059
		C110.316,62.97,110.299,62.97,110.273,62.963z"/>
	<path fill="#F3DBDF" d="M8.561,62.513c0.02,0.007,0.036,0.02,0.055,0.02c-0.006,0.215-0.013,0.431-0.006,0.64
		C8.512,62.963,8.561,62.735,8.561,62.513z"/>
	<path fill="#EED3D4" d="M110.273,62.963c0.013-0.007,0.033-0.02,0.043-0.02c0.01,0.196,0.062,0.405-0.039,0.594
		C110.273,63.349,110.273,63.153,110.273,62.963z"/>
	<path fill="#B14C4E" d="M61.122,9.494c-1.12,0-2.236-0.006-3.352-0.006c-0.013-0.013,0-0.033,0.02-0.039
		c0.02,0,0.033,0.006,0.052-0.007c0.104,0.007,0.202,0,0.3,0c0.966,0,1.939,0,2.912,0c0.016,0.007,0.033,0.013,0.052,0
		C61.126,9.448,61.136,9.468,61.122,9.494z"/>
	<path fill="#F1D8DA" d="M57.79,9.448c0,0.02-0.013,0.026-0.02,0.039c-0.274,0-0.548,0.006-0.823,0.006
		C57.222,9.396,57.509,9.442,57.79,9.448z"/>
	<path fill="#EED4D8" d="M8.616,58.165c-0.02,0.013-0.033,0.02-0.052,0.033c-0.006-0.229-0.059-0.457,0.046-0.666
		C8.609,57.741,8.609,57.956,8.616,58.165z"/>
	<path fill="#EED3D4" d="M61.122,9.494c-0.006-0.013-0.016-0.033-0.016-0.052c0.281,0,0.561-0.039,0.836,0.052
		C61.668,9.494,61.4,9.487,61.122,9.494z"/>
	<path fill="#F0D9DA" d="M110.273,57.747c0-0.189,0.004-0.385,0.007-0.574c0.101,0.189,0.026,0.398,0.065,0.587
		c-0.006,0.013-0.02,0.013-0.026,0.02C110.293,57.78,110.28,57.767,110.273,57.747z"/>
	<path fill="#C34B4E" d="M110.273,57.747c0.013,0.02,0.033,0.02,0.046,0.033c0.006,0.209,0.013,0.424,0.02,0.646
		c0,0.098,0,0.196-0.006,0.294c-0.007,0.222-0.007,0.444-0.007,0.659c-0.124-0.287-0.045-0.601-0.059-0.901
		C110.26,58.237,110.267,57.988,110.273,57.747z"/>
	<path fill="#FFFEFE" d="M86.578,102.213c-1.244,0.849-2.533,1.573-3.849,2.279c-2.5,1.325-5.086,2.416-7.769,3.297
		c-2.331,0.764-4.707,1.345-7.136,1.75c-2.337,0.392-4.694,0.626-7.064,0.679c-2.5,0.065-4.991-0.046-7.482-0.359
		c-2.409-0.294-4.785-0.77-7.122-1.41c-3.669-1.005-7.169-2.422-10.505-4.237c-4.635-2.527-8.768-5.693-12.398-9.519
		c-2.337-2.468-4.401-5.138-6.196-8.03c-2.298-3.708-4.093-7.652-5.36-11.823c-0.81-2.703-1.407-5.445-1.75-8.246
		c-0.392-3.16-0.49-6.32-0.281-9.493c0.261-4.132,1.025-8.161,2.295-12.091c1.139-3.519,2.654-6.868,4.541-10.054
		c3.055-5.145,6.907-9.61,11.562-13.384c3.662-2.971,7.681-5.386,12.045-7.221c0.875-0.366,1.776-0.699,2.67-1.038
		c0.104-0.052,0.209-0.078,0.307-0.118c0.796-0.248,1.586-0.503,2.376-0.738c1.959-0.587,3.95-1.025,5.967-1.358
		c3.519-0.561,7.064-0.764,10.635-0.574c2.99,0.157,5.938,0.574,8.84,1.253c3.255,0.77,6.404,1.854,9.44,3.251
		c4.1,1.9,7.883,4.315,11.334,7.234c3.238,2.748,6.088,5.856,8.533,9.323c2.161,3.042,3.95,6.294,5.373,9.741
		c1.227,2.977,2.154,6.052,2.788,9.212c0.777,3.865,1.064,7.756,0.94,11.68c-0.085,2.39-0.343,4.766-0.777,7.116
		c-0.542,2.957-1.338,5.843-2.403,8.657c-1.521,4.022-3.532,7.782-6.032,11.288c-3.297,4.629-7.28,8.585-11.915,11.863
		c-0.098,0.072-0.202,0.131-0.307,0.189c-0.346,0.072-0.6,0.281-0.829,0.536c-0.052,0.046-0.101,0.091-0.15,0.13
		c-0.118,0.052-0.153-0.019-0.163-0.13C86.62,101.972,86.692,102.142,86.578,102.213z"/>
	<path fill="#F7F6F6" d="M87.051,101.868c0-0.007-0.007-0.007-0.007-0.02c0.085-0.287,0.548-0.574,0.836-0.516
		C87.625,101.534,87.371,101.757,87.051,101.868z"/>
	<path fill="#F7F6F6" d="M86.578,102.213c0.023-0.085,0.029-0.163,0.01-0.248c-0.019-0.072,0-0.15,0.092-0.15
		c0.065,0.006,0.141-0.072,0.193-0.013c0.082,0.085-0.056,0.091-0.056,0.157c-0.006,0.007,0.052,0.02,0.085,0.039
		C86.816,102.096,86.705,102.168,86.578,102.213z"/>
	<path fill="#D76A63" d="M43.087,13.196c-0.085,0.072-0.19,0.118-0.307,0.118C42.865,13.222,42.963,13.176,43.087,13.196z"/>
	<path fill="#E5373B" d="M25.16,31.456c0.082-0.098,0.163-0.196,0.245-0.294c0.033-0.046,0.055-0.092,0.108-0.124
		c0.901-0.934,1.76-1.9,2.69-2.807c2.879-2.781,6.059-5.158,9.571-7.11c2.429-1.332,4.955-2.435,7.586-3.317
		c2.351-0.783,4.75-1.358,7.201-1.743c3.016-0.477,6.055-0.607,9.101-0.477c1.959,0.098,3.911,0.333,5.843,0.679
		c4.446,0.803,8.67,2.252,12.666,4.342c6.013,3.16,11.066,7.456,15.153,12.881c2.775,3.695,4.919,7.73,6.444,12.084
		c1.064,3.049,1.786,6.163,2.174,9.362c0.372,3.095,0.421,6.183,0.157,9.29c-0.359,4.172-1.279,8.207-2.775,12.124
		c-0.882,2.318-1.946,4.544-3.212,6.679c-1.479,2.507-3.173,4.851-5.092,7.025c-0.013,0-0.013,0.02-0.02,0.02
		c-0.039,0.124-0.137,0.183-0.222,0.255c-1.005,1.084-2.03,2.135-3.121,3.127c-3.01,2.735-6.316,5.033-9.943,6.881
		c-2.357,1.195-4.792,2.181-7.312,2.931c-2.918,0.882-5.896,1.456-8.931,1.717c-2.53,0.222-5.047,0.229-7.58,0.039
		c-2.507-0.19-4.994-0.607-7.43-1.221c-2.735-0.686-5.373-1.619-7.919-2.807c-6.072-2.84-11.246-6.842-15.541-11.98
		c-2.615-3.134-4.759-6.574-6.44-10.296c-1.636-3.63-2.755-7.417-3.375-11.353c-0.499-3.133-0.655-6.287-0.489-9.453
		c0.206-3.61,0.819-7.142,1.87-10.596c1.573-5.171,4.015-9.897,7.292-14.193c0.157-0.216,0.313-0.424,0.477-0.633
		C24.536,32.083,24.846,31.769,25.16,31.456z"/>
	<path fill="#F5F4F5" d="M25.16,31.456c-0.248,0.372-0.529,0.705-0.823,1.032c-0.052-0.229,0.003-0.385,0.229-0.509
		c0.16-0.085,0.281-0.248,0.353-0.424C24.973,31.424,25.036,31.378,25.16,31.456z"/>
	<path fill="#F6EBEA" d="M92.777,90.325c0.055-0.105,0.131-0.183,0.222-0.255C92.995,90.227,92.914,90.305,92.777,90.325z"/>
	<path fill="#F5F4F5" d="M25.512,31.038c0,0.072-0.033,0.118-0.108,0.124c0.016-0.059-0.088-0.15,0.01-0.189
		C25.427,30.96,25.479,31.012,25.512,31.038z"/>
	<path fill="#FEFEFE" d="M102.263,60.378c-0.052,23.973-19.592,43.115-43.396,42.782c-23.673-0.32-42.577-19.775-42.221-43.461
		c0.359-23.516,19.717-42.534,43.507-42.149C83.561,17.922,102.269,37.025,102.263,60.378z"/>
	<path fill="#E5373B" d="M79.099,42.529c1.247,1.319,2.292,2.781,3.212,4.328c1.515,2.566,2.572,5.308,3.16,8.226
		c0.509,2.54,0.659,5.105,0.405,7.684c-0.682,6.972-3.656,12.776-8.833,17.457c-1.456,1.319-3.055,2.422-4.766,3.375
		c-1.75,0.966-3.597,1.73-5.51,2.279c-2.869,0.816-5.791,1.129-8.768,0.979c-0.333-0.098-0.685-0.052-1.025-0.098
		c-0.744-0.006-1.475-0.137-2.207-0.274c-2.566-0.463-5.021-1.273-7.332-2.468c-5.549-2.866-9.623-7.136-12.209-12.816
		c-1.253-2.748-1.981-5.647-2.226-8.67c-0.411-5.243,0.607-10.204,3.114-14.827c2.442-4.498,5.915-7.991,10.368-10.511
		c1.998-1.129,4.103-1.985,6.326-2.553c2.778-0.699,5.595-0.979,8.461-0.764c1.214,0.091,2.422,0.248,3.623,0.496
		c2.54,0.516,4.949,1.397,7.221,2.637c1.821,0.992,3.509,2.181,5.047,3.571c0.072,0.065,0.137,0.137,0.202,0.202
		C77.95,41.367,78.518,41.954,79.099,42.529z"/>
	<path fill="#040404" d="M36.102,78.887c-0.167,0.104-0.326,0.229-0.464,0.366c-0.157,0.209-0.356,0.379-0.6,0.47l0,0
		c-0.131,0.15-0.274,0.294-0.477,0.366c-0.64,0.444-0.64,0.444-0.157,1.044c0.542,0.692,1.09,1.391,1.622,2.083
		c0.117,0.157,0.192,0.196,0.356,0.053c0.411-0.359,0.888-0.646,1.279-1.045c0.078-0.098,0.17-0.196,0.3-0.209
		c0.059-0.059,0.118-0.111,0.17-0.15c0.039-0.059,0.091-0.111,0.137-0.15c0.216-0.17,0.274-0.157,0.405,0.091
		c0.274,0.366,0.542,0.731,0.826,1.077c0.088,0.124,0.104,0.183-0.026,0.281c-1.818,1.417-3.633,2.834-5.448,4.257
		c-0.104,0.085-0.176,0.124-0.274-0.006c-0.294-0.392-0.594-0.777-0.901-1.156c-0.098-0.13-0.072-0.189,0.052-0.281
		c0.183-0.124,0.353-0.281,0.529-0.424c0.046-0.124,0.15-0.196,0.284-0.235c0.019-0.02,0.049-0.039,0.068-0.065
		c0.046-0.118,0.17-0.104,0.238-0.176l0.003,0.006c0.065-0.176,0.248-0.202,0.372-0.3c0.183-0.124,0.359-0.268,0.548-0.392
		c0.118-0.085,0.085-0.15,0.013-0.235c-0.673-0.862-1.352-1.717-2.007-2.585c-0.124-0.163-0.193-0.085-0.297-0.006
		c-0.653,0.516-1.306,1.012-1.946,1.521c-0.163,0.137-0.248,0.124-0.366-0.039c-0.248-0.346-0.509-0.685-0.79-1.006
		c-0.15-0.183-0.137-0.274,0.046-0.411c1.541-1.188,3.081-2.39,4.622-3.591c0.235-0.189,0.49-0.372,0.718-0.581
		c0.163-0.144,0.242-0.098,0.366,0.059c0.255,0.353,0.535,0.679,0.81,1.019C36.323,78.711,36.323,78.737,36.102,78.887z"/>
	<path fill="#040404" d="M45.666,28.492c0.542-0.091,1.025-0.046,1.463,0.248c0.934,0.627,1.103,1.998,0.346,2.84
		c-0.274,0.3-0.594,0.522-0.947,0.705c-0.966,0.477-1.932,0.94-2.899,1.43c-0.17,0.085-0.235,0.039-0.304-0.111
		c-0.943-1.932-1.883-3.852-2.83-5.778c-0.072-0.137-0.104-0.209,0.085-0.307c0.868-0.405,1.724-0.842,2.589-1.26
		c0.526-0.248,1.074-0.372,1.662-0.216c1.064,0.274,1.495,1.293,0.947,2.253C45.751,28.335,45.718,28.394,45.666,28.492z"/>
	<path fill="#040404" d="M81.221,85.689c0.006,0.02,0.026,0.039,0.039,0.065c0.202,0.091,0.287,0.287,0.366,0.483
		c0.17,0.235,0.34,0.47,0.503,0.705c0.868,1.247,0.842,2.494-0.124,3.675c-0.604,0.744-1.358,1.299-2.246,1.652
		c-1.332,0.522-2.579,0.176-3.486-0.992c-0.849-1.084-1.661-2.193-2.494-3.29c-0.118-0.143-0.065-0.196,0.059-0.287
		c0.372-0.274,0.738-0.548,1.094-0.829c0.141-0.111,0.219-0.117,0.336,0.046c0.764,1.032,1.547,2.05,2.318,3.082
		c0.499,0.666,1.103,0.908,1.802,0.705c0.816-0.235,1.488-0.966,1.534-1.704c0.026-0.444-0.134-0.823-0.392-1.162
		c-0.777-1.045-1.554-2.076-2.337-3.101c-0.134-0.17-0.124-0.242,0.059-0.366c0.346-0.242,0.679-0.496,1.012-0.764
		c0.17-0.144,0.268-0.163,0.411,0.046c0.255,0.379,0.542,0.724,0.816,1.084c0.124,0.026,0.163,0.131,0.19,0.242l0,0
		C80.894,85.187,81.123,85.389,81.221,85.689z"/>
	<path fill="#040404" d="M92.904,75.492c-0.16,1.541-0.63,2.932-1.968,3.859c-0.849,0.581-1.795,0.548-2.723,0.163
		c-1.266-0.522-2.527-1.071-3.793-1.593c-0.17-0.065-0.17-0.144-0.104-0.287c0.189-0.424,0.379-0.849,0.545-1.286
		c0.069-0.17,0.137-0.183,0.297-0.111c1.149,0.496,2.328,0.953,3.457,1.488c1.309,0.62,2.347-0.163,2.602-1.417
		c0.176-0.862-0.17-1.508-0.996-1.874c-1.188-0.529-2.393-1.032-3.594-1.534c-0.193-0.085-0.248-0.15-0.15-0.359
		c0.196-0.405,0.366-0.829,0.535-1.247c0.052-0.143,0.111-0.17,0.261-0.104c1.293,0.561,2.605,1.09,3.885,1.678
		c0.901,0.398,1.515,1.064,1.711,2.063c0,0.039,0.016,0.079,0.02,0.118C92.891,75.191,92.901,75.341,92.904,75.492z"/>
	<path fill="#040404" d="M92.711,42.894c0.098,0.085,0.196,0.157,0.297,0.235c0.222,0.118,0.395,0.287,0.48,0.535
		c0.457,0.672,0.81,1.397,0.927,2.22c0.287,2.004-1.087,4.12-3.427,4.08c-1.149-0.026-2.109-0.529-2.801-1.456
		c-0.862-1.162-1.286-2.455-0.842-3.898c0.633-2.037,2.713-2.964,4.655-2.109c0.121,0.052,0.242,0.098,0.352,0.15
		c0.062,0.046,0.147,0.039,0.186,0.124l0,0C92.607,42.796,92.679,42.816,92.711,42.894z"/>
	<path fill="#040404" d="M77.895,30.209c1.812-1.502,4.24-1.019,5.781,0.914c0.973,1.214,1.051,2.944,0.229,4.152
		c-0.092,0.144-0.196,0.274-0.3,0.411c-0.065,0.176-0.202,0.268-0.366,0.353c-2.409,1.502-5.484,0.379-6.261-2.298
		c-0.281-0.979-0.17-1.926,0.326-2.807c0.039-0.065,0.019-0.163,0.117-0.176l0,0c0.065-0.111,0.098-0.261,0.242-0.3l0,0
		C77.702,30.34,77.787,30.274,77.895,30.209z"/>
	<path fill="#040404" d="M51.803,97.754c0.366-0.666,0.722-1.319,1.084-1.965c0.862-1.554,1.724-3.108,2.579-4.675
		c0.098-0.183,0.183-0.261,0.424-0.215c0.535,0.091,1.08,0.137,1.622,0.196c0.134,0.013,0.212,0.059,0.255,0.189
		c0.748,2.481,1.505,4.962,2.269,7.475c-0.63-0.078-1.237-0.15-1.835-0.222c-0.137-0.013-0.131-0.104-0.15-0.176
		c-0.114-0.385-0.235-0.764-0.32-1.149c-0.039-0.163-0.131-0.209-0.287-0.229c-0.921-0.098-1.844-0.216-2.768-0.34
		c-0.163-0.02-0.268,0-0.346,0.17c-0.163,0.346-0.353,0.666-0.522,1.006c-0.059,0.137-0.131,0.163-0.294,0.15
		C52.958,97.878,52.397,97.826,51.803,97.754z"/>
	<path fill="#040404" d="M41.22,85.677c0.078-0.039,0.157-0.092,0.235-0.137c0.646-0.418,0.64-0.418,1.266,0.02
		c0.3,0.209,0.588,0.424,0.901,0.627c0.15,0.104,0.202,0.209,0.163,0.385c-0.372,1.867-0.738,3.741-1.103,5.608
		c-0.131,0.653-0.251,1.299-0.392,2.004c-0.437-0.32-0.849-0.627-1.286-0.888c-0.268-0.17-0.353-0.353-0.229-0.653
		c0.02-0.046,0.026-0.104,0.033-0.163c0.065-0.326,0.281-0.679,0.157-0.947c-0.124-0.242-0.483-0.379-0.744-0.561
		c-0.555-0.398-1.123-0.777-1.668-1.182c-0.157-0.111-0.258-0.118-0.415,0c-0.281,0.215-0.587,0.405-0.875,0.614
		c-0.124,0.092-0.222,0.117-0.359,0.006c-0.45-0.326-0.914-0.653-1.407-0.992c0.833-0.542,1.629-1.058,2.425-1.587
		c0.888-0.574,1.769-1.155,2.657-1.743C40.737,85.873,40.972,85.768,41.22,85.677z"/>
	<path fill="#040404" d="M55.322,22.642c1.384-0.006,2.5,0.496,3.167,1.763c0.6,1.149,0.607,2.814-0.359,3.859
		c-0.6,0.666-1.371,1.019-2.226,1.162c-1.048,0.176-2.112,0.287-3.173,0.431c-0.183,0.026-0.245-0.007-0.271-0.209
		c-0.18-1.547-0.382-3.088-0.578-4.622c-0.065-0.568-0.15-1.136-0.219-1.711c-0.016-0.124-0.075-0.268,0.153-0.3
		c1.094-0.118,2.184-0.248,3.271-0.372C55.159,22.636,55.25,22.642,55.322,22.642z"/>
	<path fill="#040404" d="M71.647,95.032c0.072-0.033,0.14-0.059,0.212-0.098c0.94-0.392,1.88-0.783,2.807-1.188
		c0.183-0.085,0.235-0.039,0.3,0.124c0.098,0.261,0.196,0.542,0.34,0.784c0.124,0.222,0.006,0.281-0.163,0.352
		c-1.371,0.581-2.742,1.162-4.113,1.737c-0.588,0.255-0.594,0.255-0.836-0.333c-0.839-1.971-1.671-3.95-2.514-5.915
		c-0.065-0.15-0.082-0.229,0.111-0.313c1.502-0.62,2.99-1.253,4.479-1.893c0.17-0.078,0.242-0.045,0.3,0.124
		c0.104,0.274,0.216,0.555,0.349,0.81c0.082,0.176,0.039,0.228-0.127,0.3c-0.914,0.385-1.835,0.784-2.755,1.162
		c-0.229,0.085-0.235,0.183-0.143,0.379c0.147,0.294,0.281,0.594,0.379,0.901c0.072,0.235,0.176,0.222,0.369,0.137
		c0.862-0.372,1.727-0.737,2.582-1.103c0.176-0.079,0.261-0.072,0.32,0.117c0.104,0.281,0.222,0.555,0.352,0.816
		c0.079,0.163,0.046,0.222-0.127,0.294c-0.881,0.372-1.753,0.757-2.641,1.116c-0.196,0.078-0.215,0.144-0.137,0.32
		c0.189,0.405,0.356,0.81,0.529,1.221C71.546,94.94,71.552,95.019,71.647,95.032z"/>
	<path fill="#040404" d="M33.503,32.834c0.183-0.183,0.307-0.137,0.45,0.059c0.268,0.353,0.568,0.666,0.849,1.006
		c0.062,0.026,0.105,0.065,0.118,0.131c0.033,0.039,0.072,0.079,0.108,0.118c0.088,0.026,0.101,0.104,0.134,0.17
		c0.013,0.065,0.062,0.098,0.111,0.124c0.055,0.02,0.111,0.052,0.108,0.124c0.016,0.006,0.029,0.033,0.036,0.052
		c0.059,0.052,0.131,0.104,0.16,0.183c0.281,0.333,0.538,0.685,0.839,0.992c0.64,0.672,1.626,0.601,2.363-0.15
		c0.699-0.705,0.718-1.521,0.059-2.311c-0.761-0.894-1.521-1.802-2.292-2.696c-0.144-0.17-0.137-0.255,0.033-0.392
		c0.333-0.261,0.659-0.535,0.979-0.816c0.111-0.098,0.157-0.091,0.248,0.02c0.829,0.992,1.671,1.959,2.487,2.957
		c1.019,1.247,0.992,2.566-0.059,3.793c-0.666,0.784-1.456,1.397-2.481,1.639c-0.908,0.196-1.704-0.039-2.386-0.659
		c-0.434-0.392-0.78-0.868-1.165-1.312c-0.085-0.104-0.183-0.202-0.274-0.3c-0.104-0.013-0.085-0.118-0.137-0.17l-0.007-0.007
		c-0.183-0.078-0.274-0.242-0.346-0.411h-0.007c-0.078-0.072-0.196-0.124-0.215-0.255c-0.072-0.026-0.111-0.091-0.144-0.15
		c-0.078-0.104-0.163-0.216-0.248-0.307c-0.062-0.059-0.131-0.118-0.157-0.189c-0.013-0.15-0.34-0.209-0.124-0.431
		c0.085-0.111,0.153-0.242,0.313-0.274c0.114-0.091,0.232-0.209,0.346-0.307C33.275,32.964,33.399,32.906,33.503,32.834z"/>
	<path fill="#040404" d="M27.053,72.462c0.039-0.065,0.092-0.124,0.131-0.183c0.098-0.183,0.235-0.326,0.418-0.411
		c0.741-0.555,1.56-0.901,2.504-0.849c1.28,0.065,2.285,0.679,3.013,1.704c0.757,1.071,1.149,2.272,1.09,3.597
		c-0.006,0.216-0.078,0.34-0.287,0.411c-0.418,0.15-0.816,0.333-1.254,0.496c0.065-0.575,0.085-1.116-0.006-1.671
		c-0.15-0.882-0.463-1.671-1.201-2.239c-0.751-0.587-1.639-0.633-2.435-0.144c-0.712,0.431-1.116,1.378-0.979,2.246
		c0.157,0.999,0.679,1.789,1.41,2.468c0.173,0.163,0.34,0.32,0.548,0.509c-0.476,0.189-0.933,0.372-1.384,0.561
		c-0.104,0.046-0.17-0.013-0.229-0.078c-1.208-1.097-1.919-2.448-2.024-4.087c-0.042-0.607,0.127-1.169,0.343-1.737
		c0.046-0.072,0.042-0.17,0.114-0.235c0.02-0.033,0.046-0.072,0.059-0.105C26.935,72.632,26.955,72.521,27.053,72.462z"/>
	<path fill="#040404" d="M49.701,93.824c-0.431-0.013-0.836-0.137-1.234-0.294c-0.3-0.118-0.614-0.222-0.908-0.359
		c-0.176-0.078-0.248-0.033-0.32,0.143c-0.281,0.764-0.587,1.521-0.868,2.292c-0.072,0.196-0.137,0.216-0.32,0.143
		c-0.405-0.176-0.823-0.333-1.24-0.483c-0.17-0.065-0.222-0.111-0.153-0.307c0.832-2.135,1.655-4.27,2.465-6.405
		c0.059-0.15,0.121-0.196,0.274-0.131c0.973,0.379,1.949,0.744,2.925,1.136c0.81,0.327,1.368,0.888,1.508,1.789
		C52.025,92.642,51.013,93.818,49.701,93.824z"/>
	<path fill="#040404" d="M62.764,25.045c-0.043,0.118,0.033,0.163,0.215,0.189c0.904,0.091,1.805,0.216,2.709,0.32
		c0.141,0.02,0.196,0.039,0.173,0.196c-0.055,0.287-0.085,0.587-0.111,0.882c-0.016,0.157-0.069,0.202-0.225,0.183
		c-0.882-0.118-1.769-0.216-2.651-0.34c-0.189-0.026-0.287-0.02-0.307,0.216c-0.033,0.405-0.091,0.803-0.143,1.208
		c-0.026,0.17,0.039,0.209,0.202,0.235c0.986,0.111,1.965,0.229,2.951,0.346c0.124,0.013,0.163,0.046,0.137,0.183
		c-0.033,0.287-0.072,0.581-0.091,0.881c-0.013,0.17-0.088,0.216-0.248,0.196c-1.384-0.176-2.771-0.34-4.159-0.516
		c-0.215-0.026-0.489,0.052-0.614-0.118c-0.131-0.157,0.006-0.418,0.039-0.627c0.157-1.436,0.333-2.879,0.503-4.309
		c0.065-0.555,0.144-1.123,0.202-1.691c0.013-0.124,0.036-0.17,0.19-0.157c1.541,0.196,3.081,0.385,4.629,0.555
		c0.137,0.02,0.183,0.046,0.163,0.202c-0.052,0.268-0.078,0.548-0.098,0.823c-0.013,0.176-0.065,0.268-0.268,0.235
		c-0.894-0.118-1.795-0.209-2.683-0.333c-0.248-0.033-0.405-0.039-0.398,0.294C62.882,24.386,62.81,24.686,62.764,25.045z"/>
	<path fill="#040404" d="M28.176,43.462c-0.392,0.326-0.77,0.633-1.064,1.019c-0.552,0.725-0.927,1.528-0.771,2.468
		c0.134,0.829,0.594,1.365,1.397,1.613c0.797,0.242,1.469,0,2.037-0.555c0.725-0.705,0.944-1.619,0.966-2.598
		c-0.007-0.216-0.007-0.437-0.02-0.659c-0.013-0.17-0.007-0.274,0.209-0.157c0.333,0.163,0.672,0.294,1.006,0.437
		c0.078,0.039,0.157,0.065,0.163,0.183c0.15,1.645-0.712,4.178-2.657,4.942c-2.128,0.836-4.446-0.568-4.638-2.84
		c-0.147-1.717,0.519-3.121,1.746-4.296c0.157-0.15,0.307-0.17,0.496-0.065C27.405,43.129,27.777,43.273,28.176,43.462z"/>
	<path fill="#040404" d="M75.57,29.556c-0.715,0.313-1.407,0.229-2.092-0.104c-0.281-0.131-0.581-0.242-0.862-0.385
		c-0.215-0.124-0.287-0.052-0.372,0.15c-0.294,0.692-0.607,1.371-0.901,2.063c-0.072,0.163-0.137,0.202-0.3,0.124
		c-0.392-0.196-0.79-0.359-1.188-0.529c-0.137-0.052-0.183-0.098-0.111-0.248c0.882-1.985,1.756-3.969,2.637-5.967
		c0.059-0.15,0.127-0.15,0.258-0.098c0.898,0.411,1.812,0.796,2.703,1.208c0.734,0.333,1.205,0.888,1.342,1.691
		c0.059,0.34-0.02,0.646-0.098,0.973c-0.059,0.065,0,0.189-0.111,0.235c-0.111,0.15-0.255,0.281-0.307,0.463
		C76.011,29.335,75.835,29.517,75.57,29.556z"/>
	<path fill="#040404" d="M86.516,86.329c-0.039,0.006-0.059,0.026-0.056,0.072c-0.036,0.215-0.206,0.346-0.343,0.483
		c-0.163,0.157-0.261,0.006-0.366-0.085l-0.006,0.013l0.013-0.013c-0.307-0.117-0.516-0.379-0.771-0.581
		c-0.261-0.202-0.519-0.398-0.724-0.679c-0.95-0.79-1.9-1.606-2.86-2.409c-0.333-0.287-0.672-0.575-1.025-0.869
		c1.045-1.24,2.083-2.468,3.108-3.702c0.111-0.137,0.176-0.124,0.287-0.013c0.215,0.196,0.431,0.379,0.666,0.548
		c0.183,0.137,0.176,0.229,0.033,0.398c-0.581,0.666-1.149,1.358-1.73,2.037c-0.127,0.144-0.163,0.222,0.02,0.359
		c0.304,0.235,0.6,0.49,0.891,0.751c0.121,0.111,0.199,0.124,0.317-0.026c0.581-0.712,1.182-1.41,1.769-2.128
		c0.111-0.131,0.17-0.17,0.313-0.033c0.209,0.202,0.444,0.398,0.685,0.574c0.157,0.118,0.157,0.19,0.026,0.34
		c-0.594,0.705-1.182,1.41-1.782,2.115c-0.111,0.13-0.104,0.182,0.026,0.294c0.62,0.503,1.221,1.038,1.854,1.541
		c0.235,0.182,0.287,0.32,0.072,0.529C86.839,86.049,86.728,86.238,86.516,86.329z"/>
	<path fill="#040404" d="M67.961,97.513c0.026,0.098-0.056,0.117-0.173,0.131c-1.675,0.235-3.346,0.464-5.024,0.712
		c-0.242,0.039-0.313-0.039-0.346-0.268c-0.307-2.239-0.626-4.472-0.94-6.698c-0.033-0.182,0.007-0.242,0.19-0.268
		c0.457-0.052,0.927-0.117,1.377-0.202c0.222-0.039,0.229,0.085,0.248,0.222c0.131,0.888,0.251,1.769,0.372,2.644
		c0.131,0.914,0.248,1.835,0.372,2.735c0.026,0.196,0.059,0.3,0.326,0.255c1.064-0.17,2.151-0.3,3.232-0.457
		c0.176-0.026,0.222,0.013,0.238,0.183C67.87,96.828,67.916,97.147,67.961,97.513z"/>
	<path fill="#040404" d="M34.078,43.123c-0.242,0.333-0.477,0.666-0.725,1.006c-1.844-1.28-3.669-2.553-5.497-3.819
		c-0.131-0.091-0.131-0.157-0.046-0.281c0.251-0.34,0.509-0.685,0.725-1.038c0.127-0.202,0.209-0.163,0.359-0.059
		c1.391,0.979,2.781,1.939,4.165,2.912c0.183,0.124,0.268,0.137,0.398-0.065c0.561-0.836,1.149-1.658,1.73-2.494
		c0.091-0.144,0.163-0.176,0.313-0.065c0.274,0.216,0.561,0.405,0.855,0.601c-0.561,0.816-1.123,1.606-1.678,2.396
		c-0.033,0.046-0.059,0.079-0.052,0.124c-0.046,0.104-0.072,0.202-0.176,0.255l0,0c-0.046,0.059-0.026,0.157-0.131,0.176
		c-0.059,0.007-0.059,0.065-0.072,0.104C34.247,42.999,34.169,43.064,34.078,43.123z"/>
	<path fill="#040404" d="M86.992,37.704c-0.512,0.392-1.005,0.79-1.475,1.201c-0.209,0.287-0.516,0.463-0.77,0.699
		c-0.078,0.072-0.202,0.124-0.131,0.268c0.64,0.796,1.283,1.606,1.939,2.403c0.131,0.163,0.144,0.235-0.033,0.359
		c-0.209,0.15-0.418,0.3-0.601,0.49c-0.163,0.157-0.235,0.104-0.359-0.046c-0.986-1.227-1.978-2.455-2.977-3.662
		c-0.15-0.183-0.137-0.248,0.033-0.385c1.541-1.253,3.069-2.501,4.609-3.754c0.173-0.137,0.346-0.411,0.529-0.372
		c0.173,0.039,0.3,0.313,0.444,0.49c0.14,0.163,0.258,0.359,0.421,0.503c0.225,0.209,0.193,0.366-0.068,0.522
		c-0.039,0.02-0.078,0.072-0.124,0.111c-0.033,0.098-0.098,0.15-0.196,0.163c-0.117,0.007-0.163,0.098-0.229,0.183
		c-0.117,0.255-0.359,0.346-0.587,0.483l0,0C87.322,37.534,87.168,37.639,86.992,37.704z"/>
	<path fill="#F6F6F6" d="M84.263,85.539c0.516,0.398,1.012,0.823,1.495,1.26c-0.222,0.124-0.431,0.078-0.503-0.137
		c-0.059-0.17-0.176-0.189-0.313-0.176c-0.19,0.019-0.255-0.039-0.216-0.229c0.013-0.078,0.033-0.196-0.092-0.209
		C84.368,85.983,84.227,85.833,84.263,85.539z"/>
	<path fill="#F3F3F4" d="M84.616,39.872c-0.118-0.078-0.15-0.137-0.02-0.248c0.307-0.229,0.614-0.476,0.921-0.718
		c-0.072,0.176-0.137,0.333-0.32,0.437c-0.131,0.065-0.085,0.359-0.281,0.34C84.733,39.656,84.688,39.767,84.616,39.872z"/>
	<path fill="#E14145" d="M79.099,42.529c-0.225-0.098-0.411-0.281-0.548-0.457c-0.336-0.431-0.79-0.751-1.129-1.175
		c-0.033-0.026-0.033-0.072-0.059-0.111C77.996,41.321,78.57,41.902,79.099,42.529z"/>
	<path fill="#F6F6F6" d="M85.752,86.799c0.176,0.163,0.307,0.124,0.431-0.065c0.072-0.131,0.183-0.229,0.278-0.333
		c0.127,0.183,0.147,0.366-0.049,0.516C86.209,87.054,85.889,86.989,85.752,86.799z"/>
	<path fill="#F6F6F6" d="M86.516,86.329c0.127-0.17,0.248-0.346,0.418-0.483c0.222,0.137,0.118,0.333,0.036,0.477
		C86.849,86.532,86.672,86.434,86.516,86.329z"/>
	<path fill="#F4F5F5" d="M38.674,81.805c-0.215-0.352-0.366,0.039-0.542,0.059c-0.098-0.15-0.059-0.268,0.072-0.372
		c0.124-0.118,0.242-0.072,0.372,0.013C38.693,81.583,38.772,81.668,38.674,81.805z"/>
	<path fill="#F4F4F5" d="M35.037,79.722c0.183-0.183,0.382-0.34,0.6-0.47c0.082,0.17-0.222,0.313-0.039,0.509
		c0.026,0.013-0.055,0.039-0.104,0.046C35.331,79.833,35.188,79.755,35.037,79.722z"/>
	<path fill="#F4F5F6" d="M81.221,85.689c-0.209-0.222-0.382-0.463-0.542-0.712c0.209-0.019,0.261,0.333,0.512,0.202
		C81.192,85.357,81.358,85.513,81.221,85.689z"/>
	<path fill="#F4F5F5" d="M87.417,37.358c0.196-0.157,0.398-0.326,0.587-0.483c0.033,0.052,0.078,0.065,0.131,0.065l0,0
		c-0.098,0.131-0.255,0.209-0.281,0.392c-0.013,0.098-0.111,0.157-0.196,0.072C87.58,37.326,87.508,37.345,87.417,37.358z"/>
	<path fill="#F3F4F4" d="M27.601,71.868c-0.124,0.15-0.255,0.3-0.418,0.411c-0.111-0.124-0.091-0.307-0.006-0.398
		C27.275,71.783,27.458,71.79,27.601,71.868z"/>
	<path fill="#EFEFF0" d="M41.22,85.677c-0.202,0.163-0.418,0.3-0.64,0.411C40.665,85.67,40.802,85.585,41.22,85.677z"/>
	<path fill="#F4F5F5" d="M86.992,37.704c0.114-0.144,0.268-0.242,0.424-0.346c0.137,0.15,0.049,0.3-0.039,0.411
		C87.24,37.926,87.116,37.743,86.992,37.704z"/>
	<path fill="#F3F4F5" d="M93.488,43.665c-0.163-0.183-0.326-0.359-0.48-0.535c0.186-0.104,0.258,0.131,0.421,0.157
		C93.651,43.325,93.442,43.534,93.488,43.665z"/>
	<path fill="#F2F3F4" d="M75.57,29.556c0.199-0.144,0.398-0.281,0.597-0.424c0.02,0.072,0.095,0.131-0.029,0.196
		c-0.095,0.046-0.202,0.118-0.265,0.216C75.769,29.68,75.675,29.661,75.57,29.556z"/>
	<path fill="#F4F5F6" d="M81.626,86.238c-0.144-0.137-0.255-0.313-0.366-0.483c0.157-0.105,0.268-0.157,0.307,0.111
		C81.586,85.99,81.658,86.107,81.626,86.238z"/>
	<path fill="#F4F4F5" d="M34.561,80.088c0.15-0.137,0.3-0.268,0.477-0.366c0.006,0.15-0.131,0.202-0.202,0.274
		c0.072,0.117,0.124-0.026,0.183,0.026C35.018,80.179,34.802,80.206,34.561,80.088z"/>
	<path fill="#F1F2F3" d="M33.438,34.975c0.117,0.137,0.235,0.281,0.346,0.411C33.477,35.478,33.392,35.38,33.438,34.975z"/>
	<path fill="#F0F0F1" d="M36.102,78.887c0.18-0.117,0.098-0.229,0.013-0.353c0.006,0,0.02,0,0.033,0
		c0.085,0.072,0.287-0.144,0.294,0.085C36.441,78.782,36.33,78.939,36.102,78.887z"/>
	<path fill="#F2F3F3" d="M33.715,85.317c-0.069,0.104-0.176,0.17-0.284,0.235c-0.098-0.098,0.098-0.216-0.023-0.326
		c-0.043-0.033,0.029-0.039,0.055-0.052C33.621,85.102,33.65,85.239,33.715,85.317z"/>
	<path fill="#BF474D" d="M56.974,86.76c0.346,0.006,0.698-0.085,1.025,0.098C57.659,86.845,57.313,86.839,56.974,86.76z"/>
	<path fill="#F0F1F2" d="M32.857,33.369c-0.085,0.111-0.19,0.209-0.313,0.274C32.504,33.33,32.557,33.291,32.857,33.369z"/>
	<path fill="#F4F5F5" d="M37.962,82.014c-0.092,0.078-0.163,0.189-0.3,0.209C37.649,81.903,37.681,81.877,37.962,82.014z"/>
	<path fill="#ECEEEF" d="M83.238,36.039c0.124-0.118,0.248-0.235,0.366-0.353C83.689,36.02,83.441,36.007,83.238,36.039z"/>
	<path fill="#F2F3F3" d="M34.398,84.782c-0.098,0.137-0.235,0.222-0.372,0.3C33.928,84.691,34.26,84.873,34.398,84.782z"/>
	<path fill="#F4F5F6" d="M80.679,84.978c-0.085-0.065-0.141-0.15-0.19-0.242c0.088-0.032,0.163-0.059,0.261-0.091
		C80.773,84.762,80.796,84.873,80.679,84.978z"/>
	<path fill="#EFF0F1" d="M34.078,43.123c0.033-0.104,0.098-0.176,0.17-0.248c0.137,0.059,0.121,0.118,0.033,0.216
		C34.215,43.162,34.169,43.221,34.078,43.123z"/>
	<path fill="#F2F3F3" d="M34.022,85.076c-0.059,0.092-0.134,0.15-0.238,0.176c-0.019-0.046-0.068-0.143-0.062-0.143
		C33.813,85.037,33.921,85.057,34.022,85.076z"/>
	<path fill="#F1F2F2" d="M35.161,34.316c-0.046-0.052-0.085-0.118-0.134-0.17c0.141-0.072,0.219,0.091,0.401,0.065
		C35.318,34.303,35.2,34.211,35.161,34.316z"/>
	<path fill="#F0F1F2" d="M33.503,32.834c-0.085,0.098-0.163,0.196-0.3,0.229C33.17,32.814,33.379,32.88,33.503,32.834z"/>
	<path fill="#F2F2F3" d="M77.663,30.457c-0.065,0.104-0.137,0.216-0.242,0.3C77.454,30.608,77.382,30.392,77.663,30.457z"/>
	<path fill="#F3F4F4" d="M27.053,72.462c-0.026,0.098-0.078,0.183-0.17,0.255c-0.059-0.131,0.033-0.222,0.085-0.326
		C26.994,72.423,27.027,72.436,27.053,72.462z"/>
	<path fill="#F2F2F3" d="M77.895,30.209c-0.075,0.085-0.153,0.163-0.232,0.248C77.598,30.229,77.735,30.216,77.895,30.209z"/>
	<path fill="#F1F2F3" d="M33.072,34.57c0.082,0.02,0.114,0.078,0.144,0.15c-0.052,0.02-0.111,0.098-0.17,0.026
		C33.001,34.688,33.046,34.622,33.072,34.57z"/>
	<path fill="#F4F5F5" d="M88.233,36.692c0.052-0.072,0.118-0.131,0.196-0.163C88.474,36.718,88.415,36.783,88.233,36.692z"/>
	<path fill="#EFF0F1" d="M34.45,42.594c0.039-0.104,0.085-0.189,0.176-0.255C34.678,42.503,34.652,42.614,34.45,42.594z"/>
	<path fill="#F2F2F3" d="M77.421,30.758c-0.019,0.072-0.052,0.124-0.117,0.176c-0.02-0.098-0.039-0.189-0.059-0.294
		C77.343,30.608,77.356,30.725,77.421,30.758z"/>
	<path fill="#F1F2F3" d="M33.216,34.72c0.072,0.078,0.144,0.17,0.215,0.255C33.288,34.949,33.17,34.903,33.216,34.72z"/>
	<path fill="#F3F4F4" d="M26.909,72.384c-0.111,0.059-0.17,0.098-0.242,0.15C26.707,72.436,26.713,72.319,26.909,72.384z"/>
	<path fill="#F3F4F5" d="M92.538,42.777c-0.078-0.02-0.134-0.065-0.186-0.124c0.098,0.039,0.065-0.144,0.163-0.091
		C92.607,42.62,92.522,42.698,92.538,42.777z"/>
	<path fill="#F1F2F2" d="M35.576,34.799c-0.069-0.039-0.124-0.111-0.16-0.183C35.442,34.701,35.736,34.544,35.576,34.799z"/>
	<path fill="#F2F3F4" d="M76.409,29.204c0.079-0.052,0.131-0.013,0.144,0.072c0,0.013-0.02,0.065-0.039,0.065
		C76.409,29.348,76.422,29.269,76.409,29.204L76.409,29.204z"/>
	<path fill="#F2F3F4" d="M76.475,28.669c0.033-0.078,0.075-0.163,0.111-0.235c0.004,0.072,0.013,0.15,0,0.229
		C76.566,28.819,76.51,28.669,76.475,28.669z"/>
	<path fill="#F4F5F5" d="M88.135,36.94c0.046-0.072,0.118-0.091,0.209-0.111C88.305,36.992,88.226,36.979,88.135,36.94L88.135,36.94
		z"/>
	<path fill="#EFF0F1" d="M34.319,42.77c0.033-0.072,0.059-0.137,0.131-0.176c0,0.078,0.072,0.17-0.02,0.242
		C34.417,42.842,34.358,42.79,34.319,42.77z"/>
	<path fill="#F1F2F3" d="M32.667,34.074c0.072,0.039,0.131,0.091,0.157,0.189C32.687,34.27,32.648,34.185,32.667,34.074z"/>
	<path fill="#F1F2F2" d="M35.38,34.564c-0.033-0.039-0.075-0.079-0.108-0.124c0.052-0.02,0.111-0.065,0.157,0.006
		C35.462,34.499,35.436,34.544,35.38,34.564z"/>
	<path fill="#F1F2F3" d="M33.791,35.393c0.072,0.033,0.104,0.098,0.137,0.17C33.679,35.667,33.797,35.484,33.791,35.393z"/>
	<path fill="#F3F4F4" d="M26.824,72.822c0,0.104-0.052,0.17-0.114,0.235C26.72,72.972,26.668,72.848,26.824,72.822z"/>
	<path fill="#F3F4F5" d="M92.711,42.894c-0.059-0.046-0.114-0.085-0.173-0.118C92.692,42.679,92.721,42.764,92.711,42.894z"/>
	<path fill="#F1F2F2" d="M34.92,34.028c-0.039-0.046-0.075-0.085-0.118-0.131c0.046-0.013,0.085-0.052,0.134-0.006
		C34.985,33.944,34.939,33.976,34.92,34.028z"/>
	<path fill="#F2F3F4" d="M76.409,29.204c-0.033,0.02-0.075,0.039-0.104,0.059c-0.026-0.046-0.013-0.098,0.026-0.124
		C76.409,29.093,76.396,29.158,76.409,29.204L76.409,29.204z"/>
	<path fill="#F2F3F4" d="M76.455,28.995c-0.046-0.033-0.039-0.059-0.013-0.078c0.019-0.026,0.042-0.046,0.065-0.052
		c0.039,0,0.046,0.026,0.029,0.052C76.514,28.949,76.481,28.969,76.455,28.995z"/>
	<path fill="#F4F5F5" d="M38.68,81.459c-0.026-0.026-0.046-0.059-0.078-0.085c0.02-0.013,0.052-0.026,0.065-0.026
		c0.046,0.013,0.059,0.046,0.059,0.092C38.719,81.446,38.693,81.453,38.68,81.459z"/>
	<path fill="#F3F4F5" d="M92.949,42.927c0.01-0.039,0.016-0.065,0.062-0.046c0.013,0.013,0.033,0.039,0.033,0.065
		c0.003,0.033-0.013,0.059-0.049,0.039C92.976,42.979,92.966,42.94,92.949,42.927z"/>
	<path fill="#FFFFFE" d="M43.198,41.993c0.908-0.855,1.913-1.587,2.958-2.266c2.259-1.469,4.701-2.533,7.312-3.179
		c2.677-0.672,5.386-0.901,8.135-0.64c6.424,0.62,11.797,3.316,16.126,8.082c2.683,2.944,4.498,6.385,5.497,10.237
		c0.816,3.166,0.979,6.378,0.509,9.617c-0.712,4.975-2.788,9.316-6.147,13.031c-1.498,1.665-3.215,3.088-5.109,4.283
		c-2.128,1.332-4.413,2.311-6.836,2.951c-0.868,0.229-1.756,0.392-2.637,0.535c-0.131,0.104-0.294,0.013-0.431,0.078
		c-0.764,0.033-1.528,0.131-2.285,0.157c-1.469,0.039-2.931-0.039-4.387-0.248c-2.292-0.326-4.485-0.966-6.578-1.926
		c-3.525-1.612-6.512-3.917-8.954-6.927c-1.88-2.318-3.284-4.896-4.231-7.723c-0.62-1.867-1.005-3.787-1.155-5.752
		c-0.274-3.61,0.196-7.116,1.469-10.518c1.058-2.859,2.605-5.425,4.635-7.71c0.039-0.046,0.092-0.085,0.131-0.124
		c0.085-0.046,0.176-0.026,0.255-0.065c0.026-0.013,0.281,0.124,0.098-0.111c-0.039-0.059,0.052-0.15,0.144-0.137
		c0.059,0.006,0.085-0.026,0.131-0.046c-0.046-0.02-0.085,0.039-0.124,0.013c-0.033-0.026-0.052-0.072-0.026-0.104
		c0.052-0.072,0.121-0.196,0.19-0.163c0.209,0.104,0.111-0.261,0.287-0.163c-0.033-0.046-0.15,0-0.118-0.118
		c0.02-0.013,0.043-0.046,0.059-0.059c0.059-0.013,0.111-0.039,0.131-0.118l0,0c0.098-0.046,0.215-0.059,0.287-0.189
		c0.069-0.131,0.229-0.163,0.372-0.209c0.094-0.033,0.143-0.033,0.15-0.157c0.013-0.235,0.242-0.033,0.307-0.144
		C43.264,42.189,43.159,42.163,43.198,41.993z"/>
	<path fill="#F8F8F8" d="M42.056,43.058c0.039,0.065,0.098,0.059,0.16,0.078c0.075,0.006,0.055,0.072,0.023,0.104
		c-0.065,0.078-0.085,0.144-0.026,0.209c-0.104,0.072-0.183-0.007-0.274-0.052c-0.111-0.039-0.137,0.072-0.202,0.131
		c0.085,0.072,0.17-0.039,0.255,0.026c0.039,0.033-0.007,0.046-0.026,0.046c-0.105-0.026-0.144,0.189-0.281,0.092
		c0-0.007-0.059,0.026-0.065,0.052c-0.026,0.078,0.046,0.059,0.085,0.065c0.059,0.033,0.15,0.065,0.111,0.15
		c-0.039,0.059-0.137,0.059-0.19,0.033c-0.131-0.098-0.281,0.091-0.405-0.039C41.468,43.625,41.762,43.332,42.056,43.058z"/>
	<path fill="#F8F8F8" d="M43.198,41.993c0.033,0.209,0.255,0.104,0.366,0.216c-0.137,0.033-0.258,0.059-0.385,0.059
		c-0.114,0-0.065,0.046-0.065,0.098c0.013,0.157-0.003,0.118-0.134,0.163c-0.147,0.039-0.375,0.052-0.415,0.235
		c-0.052,0.268-0.192,0.137-0.32,0.118C42.532,42.555,42.845,42.255,43.198,41.993z"/>
	<path fill="#B8464B" d="M62.575,84.723c0.131-0.072,0.287-0.059,0.431-0.078C62.882,84.808,62.719,84.704,62.575,84.723z"/>
	<path fill="#F8F8F8" d="M42.245,42.881c0.006,0.052,0.078,0.104,0.019,0.15c-0.052,0.046-0.101-0.02-0.15-0.033
		C42.16,42.966,42.199,42.927,42.245,42.881z"/>
	<path fill="#FEFEFE" d="M46.169,30.634c0,0.163-0.124,0.34-0.3,0.483c-0.398,0.32-0.894,0.496-1.338,0.738
		c-0.098,0.059-0.137,0-0.183-0.078c-0.189-0.392-0.392-0.797-0.581-1.195c-0.049-0.078-0.052-0.144,0.052-0.189
		c0.476-0.202,0.904-0.522,1.43-0.614C45.751,29.68,46.175,30.059,46.169,30.634z"/>
	<path fill="#FEFEFE" d="M43.73,27.467c0.333,0.013,0.561,0.15,0.685,0.431c0.121,0.268,0.088,0.535-0.108,0.751
		c-0.294,0.326-0.725,0.431-1.09,0.633c-0.098,0.046-0.111-0.052-0.137-0.104c-0.17-0.34-0.346-0.692-0.509-1.025
		c-0.033-0.065-0.098-0.15-0.007-0.183C42.957,27.781,43.316,27.532,43.73,27.467z"/>
	<path fill="#FFFFFF" d="M92.3,47.654c-0.633,0.548-1.338,0.77-2.158,0.496c-0.068-0.163-0.251-0.144-0.369-0.222
		c-0.229-0.144-0.229-0.17,0-0.333c-0.242,0.091-0.411-0.046-0.581-0.17l0,0c-0.02-0.059-0.046-0.104-0.02-0.163
		c0.02-0.033,0.065-0.02,0.092-0.052c-0.033,0.013-0.059,0.02-0.085,0.039c-0.033-0.007-0.065-0.026-0.065-0.046
		c0.098-0.196-0.085-0.104-0.15-0.144c-0.033-0.052-0.078-0.098-0.065-0.17c-0.006-0.202-0.078-0.385-0.17-0.548
		c-0.02-0.013-0.026-0.026-0.013-0.039c-0.052-0.398,0.039-0.77,0.163-1.136c0.033-0.111,0.111-0.17,0.215-0.163
		c0.229,0.026,0.255-0.118,0.242-0.287c-0.007-0.124,0.006-0.242,0.104-0.326c0.02-0.007,0.033-0.026,0.046-0.033
		c0.065,0.039,0.131,0.013,0.196,0.033c0.026,0,0.072,0.039,0.052,0.006c-0.091-0.189,0.131-0.176,0.17-0.281
		c0.999-0.483,2.044-0.196,2.624,0.744c0.372,0.581,0.542,1.227,0.349,1.919c-0.029,0.124-0.075,0.235-0.166,0.333
		C92.502,47.242,92.411,47.451,92.3,47.654z"/>
	<path fill="#F8F8F9" d="M89.44,44.389c-0.078,0.163-0.052,0.359-0.036,0.509c0.033,0.235-0.088,0.17-0.189,0.163
		c-0.186-0.007-0.271-0.007-0.287,0.261c-0.016,0.183-0.114,0.392-0.18,0.594c-0.045,0.131,0.17,0.274-0.033,0.385
		C88.533,45.63,88.82,44.853,89.44,44.389z"/>
	<path fill="#F6F6F6" d="M89.192,47.425c0.196,0,0.366,0.216,0.594,0.085c0.052-0.033,0.098,0.039,0.085,0.085
		c-0.013,0.059-0.049,0.111-0.098,0.15c-0.006,0.02-0.078-0.104-0.111,0.013c-0.023,0.098,0.085,0.059,0.108,0.091
		c0.094,0.144,0.395,0.026,0.372,0.3C89.734,48.026,89.411,47.784,89.192,47.425z"/>
	<path fill="#F4F4F5" d="M92.3,47.654c-0.078-0.104,0.013-0.176,0.065-0.248c0.026-0.052,0.124-0.098,0.111-0.124
		c-0.124-0.366,0.092-0.209,0.235-0.17C92.659,47.366,92.483,47.517,92.3,47.654z"/>
	<path fill="#F8F8F9" d="M89.904,44.115c-0.013,0.124-0.287,0.229,0.006,0.392c-0.18-0.02-0.326-0.033-0.424-0.15
		C89.604,44.239,89.747,44.167,89.904,44.115z"/>
	<path fill="#F8F8F9" d="M88.729,46.341c0.17,0.15,0.294,0.307,0.17,0.548C88.794,46.72,88.722,46.544,88.729,46.341z"/>
	<path fill="#F6F6F6" d="M88.964,47.06c0.098-0.059,0.189-0.078,0.294-0.052c0.019,0.085-0.196,0.118-0.059,0.229l0,0
		c0.006,0.059,0,0.118-0.006,0.189C89.088,47.321,89.016,47.197,88.964,47.06z"/>
	<path fill="#FFFFFF" d="M80.724,35.23c-1.162-0.013-2.298-1.11-2.275-2.233c0.016-1.097,1.041-2.122,2.105-2.128
		c0.992,0.007,2.331,0.999,2.288,2.253C82.807,34.218,81.822,35.23,80.724,35.23z"/>
	<path fill="#FEFEFE" d="M55.067,95.417c0.454-0.862,0.875-1.678,1.312-2.494c0.013-0.045,0.052-0.072,0.105-0.163
		c0.274,0.992,0.529,1.939,0.809,2.925C56.549,95.6,55.838,95.515,55.067,95.417z"/>
	<path fill="#FEFEFE" d="M40.391,89.502c-0.016,0-0.039-0.013-0.052-0.033c-0.043-0.039-0.069-0.104-0.036-0.163
		c0.069-0.104,0.016-0.084-0.075-0.098c-0.124-0.026-0.222-0.131-0.255-0.255c-0.033-0.124,0.046-0.183,0.15-0.216
		c0.176-0.072-0.013-0.242,0.085-0.333c0.568-0.392,1.129-0.79,1.769-1.227c-0.229,1.032-0.437,1.998-0.653,2.971
		c-0.183-0.078-0.33-0.176-0.45-0.307C40.737,89.692,40.6,89.548,40.391,89.502z"/>
	<path fill="#F7F6F7" d="M40.208,88.405c-0.006,0.15,0.307,0.366-0.137,0.437c-0.176,0.02,0.052,0.261,0.111,0.255
		c0.34,0.02,0.147,0.235,0.157,0.372c-0.281-0.189-0.562-0.379-0.875-0.587C39.745,88.706,39.979,88.556,40.208,88.405z"/>
	<path fill="#F7F6F7" d="M40.391,89.502c0-0.026,0.013-0.098,0.039-0.078c0.157,0.124,0.405,0.17,0.444,0.418
		C40.694,89.757,40.534,89.639,40.391,89.502z"/>
	<path fill="#FFFFFF" d="M57.124,26.175c0,1.09-0.653,1.867-1.711,2.063c-0.411,0.072-0.823,0.111-1.234,0.176
		c-0.131,0.013-0.137-0.039-0.157-0.144c-0.085-0.757-0.193-1.515-0.287-2.266c-0.078-0.568-0.143-1.136-0.209-1.704
		c-0.02-0.091-0.085-0.202,0.092-0.222c0.568-0.052,1.129-0.196,1.71-0.131c0.931,0.124,1.564,0.712,1.737,1.645
		C57.104,25.789,57.15,25.998,57.124,26.175z"/>
	<path fill="#FEFEFE" d="M49.113,92.283c-0.372-0.039-0.77-0.248-1.188-0.398c-0.117-0.046-0.088-0.104-0.059-0.183
		c0.173-0.437,0.346-0.862,0.496-1.306c0.045-0.124,0.104-0.111,0.196-0.085c0.379,0.163,0.764,0.274,1.11,0.503
		c0.353,0.235,0.437,0.496,0.326,0.862C49.851,92.107,49.596,92.29,49.113,92.283z"/>
	<path fill="#FEFEFE" d="M74.986,27.461c-0.006,0.561-0.405,0.888-0.94,0.797c-0.379-0.065-0.698-0.261-1.045-0.398
		c-0.091-0.039-0.117-0.078-0.072-0.183c0.183-0.392,0.359-0.803,0.535-1.208c0.039-0.085,0.072-0.118,0.17-0.078
		c0.353,0.157,0.718,0.3,1.032,0.522C74.849,27.049,75.006,27.213,74.986,27.461z"/>
	<path fill="#E4373B" d="M45.953,78.436c0.111-0.359,0.202-0.659,0.3-0.96c1.341-4.145,2.69-8.278,4.041-12.424
		c0.215-0.673,0.418-1.339,0.659-1.998c0.078-0.242,0.059-0.379-0.163-0.535c-4.227-3.062-8.454-6.13-12.672-9.212
		c-0.117-0.085-0.235-0.17-0.379-0.281c0.131-0.065,0.255-0.039,0.359-0.039c5.256,0,10.518,0,15.773,0.013
		c0.287-0.006,0.385-0.104,0.467-0.359c0.793-2.481,1.603-4.955,2.406-7.43c0.816-2.527,1.639-5.047,2.461-7.567
		c0.026-0.091,0.065-0.189,0.111-0.326c0.183,0.333,0.251,0.64,0.346,0.94c1.025,3.134,2.043,6.267,3.062,9.395
		c0.535,1.671,1.084,3.336,1.613,5.007c0.085,0.274,0.229,0.326,0.49,0.326c5.203,0,10.407,0,15.616,0c0.147,0,0.294,0,0.499,0
		c-0.255,0.274-0.526,0.431-0.78,0.614c-4.048,2.944-8.096,5.882-12.143,8.827c-0.405,0.287-0.405,0.287-0.248,0.77
		c1.338,4.119,2.677,8.246,4.018,12.372c0.278,0.855,0.558,1.737,0.846,2.592c0.02,0.072,0.026,0.15,0.059,0.274
		c-0.836-0.594-1.619-1.162-2.396-1.737c-3.565-2.592-7.142-5.184-10.694-7.788c-0.206-0.15-0.336-0.144-0.535,0.006
		c-4.27,3.108-8.546,6.209-12.816,9.316C46.175,78.293,46.097,78.345,45.953,78.436z"/>
	<path fill="#F8FCFD" d="M69.92,52.824c-0.163,0.007-0.32,0.007-0.48,0.007c-0.075,0.046-0.153,0.026-0.225,0.026
		c-1.116,0.006-2.233,0-3.349,0c-0.078,0-0.163,0.02-0.235-0.033c-0.359,0.013-0.718-0.026-1.084,0.052c0-0.026,0-0.059,0-0.085
		c5.334-0.007,10.655,0,15.992,0.006c0.003,0.065-0.095,0.013-0.147,0.026c-0.082,0.046-0.176,0.039-0.261,0.039
		c-2.683-0.006-5.36-0.006-8.05-0.006c-0.085,0.006-0.176,0.02-0.258-0.026c-0.157-0.007-0.317-0.007-0.48,0
		C70.873,52.87,70.396,52.87,69.92,52.824z"/>
	<path fill="#FFFEF7" d="M71.823,52.831c2.856,0,5.709,0,8.569-0.007c-0.085,0.104-0.202,0.065-0.307,0.065
		c-2.65-0.006-5.308,0-7.952-0.006C72.029,52.89,71.911,52.922,71.823,52.831z"/>
	<path fill="#FFFEF7" d="M65.631,52.824c1.273,0.007,2.54,0,3.81,0.007c-0.065,0.078-0.157,0.052-0.248,0.052
		c-1.1,0.006-2.203,0-3.307,0C65.794,52.883,65.702,52.916,65.631,52.824z"/>
	<path fill="#FFFEF7" d="M69.92,52.824c0.473,0.007,0.953,0.007,1.423,0.007C70.87,52.929,70.393,52.922,69.92,52.824z"/>
	<path fill="#F6F6F6" d="M89.199,47.236c0.052-0.078,0.104-0.157,0.202-0.078c0.046,0.033,0.046,0.098,0.02,0.144
		C89.323,47.399,89.277,47.242,89.199,47.236L89.199,47.236z"/>
</g>
</svg>
