<?xml version="1.0" encoding="UTF-8" standalone="no"?>
<svg id="Layer_1" xmlns:rdf="http://www.w3.org/1999/02/22-rdf-syntax-ns#" xmlns="http://www.w3.org/2000/svg" enable-background="new 0 0 595.28 841.89" xml:space="preserve" height="28" viewBox="0 0 79.999996 28" width="80" version="1.1" y="0px" x="0px" xmlns:cc="http://creativecommons.org/ns#" xmlns:dc="http://purl.org/dc/elements/1.1/"><g id="g4404" fill="#033463" transform="matrix(.15751 0 0 .15517 -6.2179 -54.319)"><path id="path4406" d="m488.47 390.25c-0.971-3.513-2.538-6.612-4.678-9.268-0.986-1.225-2.13-2.294-3.376-3.277l-0.261 0.788c-0.39 1.234-0.692 2.17-1.004 2.979-0.069 0.147-0.312 0.766-0.321 0.87-0.806 1.936-2.052 3.512-2.702 4.266l-0.285 0.324c-0.347 0.32-0.667 0.649-0.996 0.931-0.069 0.061-0.355 0.27-0.425 0.321-0.883 0.701-1.845 1.226-2.918 1.648 0.822 1.547 1.403 3.357 1.706 5.41 0.303 2.068 0.458 4.187 0.458 6.278 0 2.226-0.155 4.343-0.458 6.452-0.303 2.13-0.884 4.018-1.706 5.716-0.875 1.658-2.018 3.035-3.499 4.035-1.508 1.031-3.412 1.524-5.689 1.524-2.234 0-4.097-0.493-5.595-1.524-1.489-1-2.651-2.377-3.499-4.035-0.823-1.698-1.421-3.586-1.775-5.716-0.348-2.109-0.512-4.227-0.512-6.326 0-2.118 0.183-4.192 0.581-6.197 0.372-2.065 1.005-3.876 1.879-5.474 0.884-1.627 2.078-2.901 3.568-3.957 0.061-0.039 0.147-0.092 0.233-0.144 0.174-0.108 2.771-3.152 3.352-4.387 0.779-1.745 1.603-4.706 2.391-7.591 0.13-0.536 0.285-1.078 0.424-1.571-0.225-0.021-0.424-0.021-0.667-0.021-4.693 0-8.772 0.771-12.323 2.368-3.517 1.541-6.418 3.668-8.747 6.392-2.304 2.677-4.026 5.815-5.223 9.388-1.16 3.538-1.758 7.327-1.758 11.318 0 3.933 0.493 7.656 1.56 11.198 1.004 3.556 2.606 6.699 4.789 9.389 2.191 2.719 5.04 4.85 8.487 6.447 3.517 1.598 7.75 2.416 12.773 2.416 4.998 0 9.25-0.818 12.8-2.473 3.499-1.615 6.384-3.814 8.601-6.561 2.243-2.723 3.845-5.911 4.815-9.483 0.996-3.611 1.489-7.378 1.489-11.289 0-3.919-0.493-7.635-1.489-11.164z"/><path id="path4408" d="m483.62 361.68-0.01-0.07c-0.017-0.013-0.068-0.073-0.068-0.073-0.243-0.247-0.806-0.677-2.104-1.131-0.598-0.177-1.179-0.303-1.603-0.354-0.155 0-0.581-0.057-0.684-0.057-0.191 0-0.372-0.009-0.529-0.009-0.138-0.021-0.528-0.021-0.528-0.021-0.787 0-1.602 0.048-2.425 0.212-0.39 0.082-0.806 0.195-1.213 0.342-0.882 0.295-1.758 0.749-2.58 1.356-0.069 0.06-0.338 0.276-0.391 0.329-0.225 0.212-0.458 0.407-0.684 0.632 0 0-0.198 0.242-0.233 0.26-0.208 0.247-0.581 0.701-0.979 1.251-0.086 0.13-0.303 0.489-0.371 0.546-0.104 0.19-0.227 0.407-0.329 0.606-0.2 0.381-0.407 0.793-0.563 1.237-0.304 0.732-0.598 1.547-0.866 2.439-0.121 0.355-0.242 0.718-0.346 1.073-1.3 4.287-2.478 9.557-3.785 12.51-0.962 2.126-2.581 2.854-2.581 2.854-0.052 0.057-0.052 0.121-0.052 0.121 0 0.147 0.018 0.222 0.069 0.291l0.034 0.051c0.019 0.035 0.069 0.074 0.069 0.074 0.252 0.281 0.798 0.701 2.096 1.147 0.789 0.226 1.524 0.359 2.001 0.377 0.286 0.03 0.58 0.048 0.806 0.048h0.771c1.974-0.018 4.156-0.498 6.035-1.927 0.035-0.039 0.261-0.221 0.312-0.26 0.233-0.208 0.477-0.425 0.711-0.65 0 0 0.208-0.264 0.242-0.281 0.459-0.52 1.516-1.822 2.148-3.386 0.06-0.087 0.242-0.667 0.312-0.845 0.337-0.818 0.648-1.767 0.953-2.754 1.298-4.321 2.494-9.687 3.826-12.661 0.953-2.122 2.573-2.885 2.573-2.885 0.034-0.047 0.061-0.1 0.061-0.1 0-0.163-0.027-0.215-0.095-0.292z"/><path id="path4410" d="m185.07 389.67c-0.19-0.714-0.398-1.415-0.58-2.108-0.875-2.962-2.477-5.616-4.374-7.929-1.914-2.312-4.521-4.122-7.56-5.473-3.058-1.404-6.816-2.07-11.198-2.07-3.36 0-6.677 0.52-9.89 1.611-3.205 1.113-6.105 2.836-8.617 5.166-2.563 2.363-4.607 5.308-6.132 8.89-1.533 3.546-2.286 7.794-2.286 12.734 0 6.032 0.84 11 2.563 14.939 1.724 3.963 3.975 7.119 6.764 9.466 2.78 2.352 5.95 3.961 9.5 4.91 3.56 0.975 7.171 1.416 10.86 1.416 4.079 0 7.595-0.441 10.635-1.342 3.005-0.893 5.309-1.971 6.963-3.227 1.083-0.758 3.161-2.811 3.161-2.811l-6.148-9.521c-0.251 0.232-0.563 0.441-0.814 0.666-0.857 0.749-1.931 1.434-3.109 2.043-1.195 0.62-2.529 1.14-4.01 1.594-1.498 0.425-3.248 0.624-5.188 0.624-5.126 0-8.842-1.394-11.215-4.287-2.355-2.845-3.689-6.829-4.001-10.751h34.625 0.459c0.052-0.377 0.122-0.915 0.156-1.576 0.052-0.697 0.086-1.383 0.104-2.062 0.069-0.701 0.069-1.358 0.069-1.986v-1.629c-0.001-2.531-0.244-4.97-0.737-7.287zm-34.806 5.396c0-3.879 0.97-6.932 2.918-9.137 1.914-2.238 4.486-3.26 7.708-3.26 3.776 0 6.408 1.052 7.837 3.402 1.472 2.326 2.191 5.115 2.191 8.994h-20.654z"/><path id="path4412" d="m85.579 356.17c-5.305-4.026-13.67-6.048-25.111-6.048-2.954 0-6.296 0.086-9.968 0.28-3.689 0.213-6.916 0.485-10.808 0.897v77.917h15.658v-27.367h6.075c4.334 0 8.414-0.68 12.307-1.619 3.875-0.927 7.292-2.702 10.246-4.867 2.949-2.117 5.274-4.972 7.015-8.514 1.723-3.503 2.559-7.838 2.559-12.891-0.001-7.831-2.647-13.747-7.973-17.788zm-12.921 30.57c-2.988 2.218-7.357 3.369-13.107 3.369h-4.2v-28.236c2.611-0.247 4.009-0.355 6.534-0.355 4.404 0 8.163 1.009 10.994 3.031 2.849 2.065 4.252 5.451 4.252 10.232 0 5.702-1.485 9.694-4.473 11.959z"/><path id="path4414" d="m412.56 372.61v56.604c2.355 1.33 7.759 2.871 15.648 1.455v-54.802c-1.307-0.979-7.836-5.262-15.648-3.257z"/><path id="path4416" d="m243.03 373.74c-9.734-4.01-16.394 0.541-16.394 0.541l-11.293 39.184-11.458-39.235s-6.867-4.642-16.835-0.269l19.512 55.257h17.503l19.477-55.295c0-0.001-0.191-0.066-0.512-0.183z"/><path id="path4418" d="m294.38 387.56c-0.813-2.962-2.442-5.616-4.348-7.929-1.914-2.312-4.512-4.122-7.552-5.473-3.066-1.404-6.842-2.07-11.215-2.07-3.378 0-6.668 0.52-9.864 1.611-3.212 1.113-6.097 2.836-8.66 5.166-2.537 2.363-4.59 5.308-6.105 8.89-1.524 3.546-2.287 7.794-2.287 12.734 0 6.032 0.866 11 2.572 14.939 1.724 3.963 3.966 7.119 6.747 9.466 2.78 2.352 5.958 3.961 9.509 4.91 3.533 0.975 7.188 1.416 10.851 1.416 4.071 0 7.639-0.441 10.644-1.342 2.979-0.893 5.36-1.971 6.98-3.227 1.039-0.758 3.118-2.811 3.118-2.811l-6.141-9.521c-0.225 0.232-0.527 0.441-0.788 0.666-0.849 0.749-1.921 1.434-3.1 2.043-1.203 0.62-2.546 1.14-4.019 1.594-1.515 0.425-3.256 0.624-5.205 0.624-5.101 0-8.842-1.394-11.215-4.287-2.338-2.845-3.689-6.829-3.993-10.751h34.634 0.441c0.086-0.377 0.121-0.915 0.173-1.576 0.034-0.697 0.087-1.383 0.122-2.062 0.034-0.701 0.034-1.358 0.034-1.986v-1.629c0-2.532-0.243-4.972-0.736-7.288-0.181-0.712-0.389-1.414-0.597-2.107zm-34.191 7.504c0-3.879 0.952-6.932 2.883-9.137 1.932-2.238 4.53-3.26 7.751-3.26 3.776 0 6.382 1.052 7.837 3.402 1.446 2.326 2.2 5.115 2.2 8.994h-20.671z"/><path id="path4420" d="m352.26 384.59c-0.286-1.29-0.693-2.464-1.229-3.521-1.872-3.438-6.756-8.509-19.392-8.977h-0.58-0.018c-1.774 0.013-3.516 0.165-5.17 0.372-4.183 0.507-7.665 1.416-10.566 2.478-0.086 0.034-0.172 0.077-0.26 0.108-0.812 0.303-1.602 0.609-2.303 0.97h-0.018c-0.372 0.159-0.771 0.355-1.091 0.554-7.102 3.616-9.336 8.099-9.336 8.099v44.543h15.632v-40.898s0.771-1.577 3.759-2.867c0.268-0.095 0.546-0.199 0.84-0.308 0.528-0.164 1.038-0.307 1.55-0.411 2.062-0.506 6.365-0.931 9.224-0.091 0.589 0.195 1.057 0.377 1.377 0.521 0.355 0.176 0.806 0.506 0.892 0.549 0.814 0.672 1.36 1.29 1.62 2.369 0.138 0.598 0.26 1.078 0.269 1.757 0.052 0.698 0.052 1.383 0.052 2.05v37.33h15.676v-33.042c0-2.066-0.069-4.123-0.174-6.224-0.122-2.116-0.392-3.568-0.754-5.361z"/><path id="path4422" d="m546.64 384.59c-0.268-1.29-0.684-2.464-1.211-3.521-1.88-3.438-6.756-8.509-19.374-8.977h-0.598c-1.793 0.013-3.55 0.165-5.188 0.372-4.164 0.507-7.664 1.416-10.591 2.478-0.043 0.034-0.147 0.077-0.233 0.108-0.822 0.303-1.594 0.609-2.304 0.97-0.398 0.159-0.754 0.355-1.108 0.554-7.067 3.616-9.362 8.099-9.362 8.099v44.543h15.658v-40.898s0.787-1.577 3.793-2.867c0.252-0.095 0.511-0.199 0.814-0.308 0.493-0.164 1.03-0.307 1.55-0.411 2.035-0.506 6.374-0.931 9.189-0.091 0.632 0.195 1.074 0.377 1.42 0.521 0.354 0.176 0.805 0.506 0.883 0.549 0.823 0.672 1.352 1.29 1.62 2.369 0.121 0.598 0.225 1.078 0.276 1.757 0.035 0.698 0.069 1.383 0.069 2.05v37.33h15.649v-33.042c0-2.066-0.061-4.123-0.182-6.224-0.12-2.116-0.371-3.568-0.77-5.361z"/><path id="path4424" d="m123.92 385.39c0.767 0.112 1.481 0.256 2.166 0.468 1.455 0.411 3.176 1.19 4.986 2.46 0.121-0.256 0.26-0.559 0.407-0.866 1.879-4.725 1.827-8.47 1.472-10.7-0.226-0.376-0.494-0.767-0.806-1.144-1.264-1.329-4.232-3.39-10.736-3.516h-1.091c-15.143 0.42-20.793 9.644-22.023 12.008-0.087 0.199-0.152 0.376-0.273 0.572l0.034 44.543h15.602v-40.898s3.058-2.547 7.427-2.962c0.069-0.019 0.151-0.019 0.243-0.03 0.099 0 0.221 0 0.324-0.021 0.186 0 0.373-0.018 0.545-0.018-0.001 0.001 0.632-0.035 1.723 0.104z"/><path id="path4426" d="m390.52 419.15h-0.276c-2.659 0-4.885-0.467-6.669-1.42-1.81-0.943-3.265-2.243-4.425-3.871-1.127-1.633-1.932-3.568-2.391-5.737-0.459-2.179-0.719-4.529-0.719-7.059 0-4.919 1.108-8.964 3.3-12.149 2.217-3.157 5.889-4.734 11.024-4.734 0 0 7.682-0.221 14.308 4.141 2.044-6.224 0.796-10.453 0.527-11.363-0.441-0.319-0.892-0.648-1.454-0.986-1.794-1.187-4.062-2.152-6.79-2.832-2.746-0.719-5.716-1.044-8.911-1.044-2.599 0-5.5 0.372-8.757 1.234-3.265 0.836-6.322 2.312-9.224 4.504-2.9 2.182-5.325 5.147-7.266 8.91-1.966 3.764-2.944 8.604-2.944 14.533 0 6.292 0.927 11.362 2.806 15.22 1.896 3.876 4.235 6.937 7.05 9.107 2.832 2.186 5.872 3.672 9.171 4.447 3.257 0.801 6.349 1.178 9.164 1.178 4.217 0 7.681-0.441 10.427-1.416 2.667-0.918 4.71-1.896 6.201-2.936 0.389-1.273 1.385-5.469-0.65-11.441-5.975 3.571-12.497 3.714-13.502 3.714z"/><path id="path4428" d="m477.78 472.86v0.078 40.561c0 0.797-0.348 1.668-1.084 2.654-0.7 1.006-1.688 1.906-2.918 2.779-1.265 0.857-2.762 1.578-4.538 2.176-1.775 0.605-3.707 0.895-5.803 0.895-1.827 0-3.421-0.164-4.779-0.488-1.369-0.307-2.651-0.9-3.828-1.764-1.334-0.943-2.201-2.32-2.659-4.135-0.434-1.793-0.633-4.234-0.633-7.312l0.019-33.344c-0.841-0.619-5.023-3.367-10.021-2.1v0.078 35.291c0 2.416 0.113 4.963 0.355 7.586 0.242 2.633 0.979 5.049 2.182 7.236 1.214 2.209 3.075 4.002 5.587 5.422 2.512 1.416 6.028 2.092 10.601 2.092 4.451 0 8.089-0.676 10.921-2.061 2.823-1.4 5.022-2.998 6.6-4.752 0.986 2.479 4.19 6.76 10.02 6.812v-55.605c-0.86-0.618-5.043-3.366-10.022-2.099"/><path id="path4430" d="m539.92 445.32c-0.061 0-0.147-0.02-0.233-0.02-0.226 0-0.477 0.02-0.753 0.057-0.27 0.029-0.478 0.064-0.65 0.064h-0.702v0.227h-0.017v16.129 4.838 0.516 10.881c-1.568-1.502-3.586-2.854-6.037-3.992-2.477-1.188-5.481-1.775-8.998-1.775-3.057 0-6.027 0.588-8.895 1.775-2.866 1.156-5.36 2.953-7.525 5.34-2.156 2.363-3.88 5.463-5.179 9.23s-1.932 8.229-1.932 13.406c0 5.268 0.615 9.713 1.88 13.377 1.247 3.633 2.937 6.551 5.109 8.82 2.165 2.221 4.659 3.846 7.491 4.867 2.798 1.031 5.768 1.508 8.808 1.508 1.966 0 3.759-0.199 5.412-0.621 1.637-0.453 3.128-0.977 4.409-1.631 1.299-0.637 2.407-1.352 3.359-2.135 0.814-0.719 1.499-1.334 2.097-1.924v0.018c0.996 1.971 4.218 6.24 10.02 6.293v-57.736-4.84-0.502-19.768c-0.692-0.519-3.75-2.529-7.664-2.402m-3.274 71.754c-0.65 0.928-1.551 1.754-2.728 2.451-1.196 0.725-2.582 1.295-4.201 1.775-1.61 0.469-3.369 0.705-5.257 0.705-2.823 0-5.214-0.523-7.136-1.58-1.932-1.057-3.49-2.572-4.686-4.447-1.17-1.922-1.992-4.174-2.469-6.775-0.467-2.564-0.719-5.379-0.719-8.443 0-6.566 1.3-11.523 3.923-14.879 2.599-3.383 6.132-5.051 10.601-5.051 1.896 0 3.586 0.213 5.075 0.641 1.498 0.434 2.832 0.953 3.976 1.578 1.143 0.635 2.079 1.314 2.832 2.004 0.701 0.629 1.265 1.188 1.706 1.615v27.713c-0.008 0.896-0.337 1.775-0.917 2.693"/><path id="path4432" d="m427.31 447.72c-0.823-0.629-5.006-3.373-10.029-2.074v78.627c1.014 1.971 4.253 6.24 10.029 6.293v-82.846z"/><path id="path4434" d="m402.16 483.87c-0.702-2.555-1.862-4.736-3.534-6.469-1.653-1.707-3.819-3.014-6.504-3.875-2.676-0.846-6.027-1.287-10.02-1.287-2.373 0-4.764 0.195-7.171 0.588-2.46 0.391-4.659 0.932-6.66 1.646-1.991 0.697-3.628 1.512-4.858 2.404-0.225 0.168-0.416 0.35-0.599 0.492 0 0.135 0.01 0.26 0.01 0.408-0.182 4.299 1.187 6.953 1.966 8.098h0.139c2.269-1.576 4.625-2.799 7.05-3.711 2.441-0.91 5.43-1.34 8.945-1.34 4.781 0 8.021 0.893 9.7 2.738 1.688 1.869 2.521 4.533 2.521 8.084v1.758c-0.693-0.064-1.516-0.109-2.435-0.109h-2.476c-2.885 0.074-6.098 0.379-9.545 0.938-3.48 0.553-6.746 1.553-9.803 3.064-3.04 1.49-5.595 3.529-7.683 6.113-2.061 2.578-3.1 5.93-3.1 10.004 0 3.291 0.545 6.002 1.637 8.098 1.091 2.117 2.494 3.811 4.165 5.07 1.688 1.256 3.534 2.117 5.63 2.586 2.087 0.467 4.114 0.719 6.148 0.719 4.452 0 8.036-0.701 10.791-2.07 2.572-1.303 4.789-2.867 6.669-4.672v0.064c0.995 1.988 4.235 6.244 10.011 6.318v-1.836-4.82-0.494-6.404-8.357-5.017-9.762c0.001-3.393-0.328-6.369-0.994-8.967zm-13.45 34.828c-1.386 0.861-3.039 1.58-4.85 2.182-1.845 0.598-3.775 0.885-5.803 0.885-3.828 0-6.435-0.902-7.855-2.725-1.402-1.793-2.095-3.875-2.095-6.227 0-2.502 0.657-4.512 1.975-6.051 1.351-1.51 3.057-2.73 5.161-3.615 2.096-0.826 4.451-1.445 7.032-1.727 2.572-0.326 5.102-0.484 7.596-0.484h3.411v12.002c0 0.932-0.424 1.924-1.246 2.945-0.814 1.018-1.915 1.948-3.326 2.815z"/><path id="path4436" d="m347.62 497.69c-1.16-2.461-2.676-4.594-4.555-6.4-1.896-1.811-4.062-3.316-6.539-4.533-2.494-1.209-5.101-2.266-7.854-3.117-2.764-0.846-5.188-1.725-7.302-2.59-2.156-0.857-3.949-1.824-5.447-2.881-1.489-1.061-2.649-2.281-3.395-3.697-0.806-1.406-1.213-3.113-1.213-5.07 0-1.486 0.269-2.936 0.763-4.387 0.52-1.451 1.351-2.732 2.477-3.779 1.144-1.059 2.633-1.924 4.469-2.604 1.845-0.65 4.148-0.982 6.885-0.982 2.356 0 4.521 0.277 6.539 0.818 1.992 0.559 3.759 1.186 5.344 1.953 1.567 0.73 2.901 1.541 3.992 2.398 1.091 0.861 1.966 1.584 2.599 2.117v-0.018l-0.035-0.029s2.711-2.836 2.494-8.781v-0.736c-0.822-0.863-1.827-1.695-3.057-2.426-2.339-1.416-5.197-2.494-8.505-3.248-3.36-0.75-6.486-1.107-9.371-1.107-3.603 0-6.928 0.471-9.985 1.416-3.074 0.93-5.689 2.299-7.924 4.127-2.2 1.809-3.957 4.025-5.222 6.758-1.3 2.689-1.932 5.824-1.932 9.34 0 3.604 0.632 6.631 1.896 9.051 1.265 2.434 2.937 4.496 5.023 6.123 2.077 1.676 4.469 3.014 7.109 4.123 2.686 1.1 5.5 2.086 8.401 2.947 2.511 0.781 4.763 1.611 6.729 2.43 1.983 0.879 3.603 1.918 4.901 3.145 1.3 1.238 2.27 2.672 2.954 4.283 0.649 1.68 0.987 3.584 0.987 5.768 0 1.723-0.269 3.391-0.84 5.006-0.529 1.629-1.412 3.029-2.625 4.32-1.229 1.234-2.85 2.256-4.901 3.027-2.026 0.783-4.573 1.186-7.63 1.186-4.01 0-7.769-0.762-11.215-2.293-3.464-1.518-6.435-3.266-8.912-5.275-0.121 0.287-0.295 0.633-0.493 0.967-2.27 3.875-2.373 7.014-2.218 8.518 0.46 0.631 1.144 1.232 2.01 1.848 2.121 1.572 5.058 2.828 8.781 3.764 3.715 0.947 7.726 1.395 12.047 1.395 3.914 0 7.509-0.477 10.773-1.508 3.239-1.021 6.045-2.559 8.366-4.607 2.338-2.021 4.131-4.529 5.431-7.512 1.255-2.988 1.887-6.436 1.887-10.346 0.002-3.454-0.577-6.411-1.687-8.902"/></g></svg>
