<?xml version="1.0" encoding="UTF-8" standalone="no"?>
<svg id="Layer_1" xmlns:rdf="http://www.w3.org/1999/02/22-rdf-syntax-ns#" xmlns="http://www.w3.org/2000/svg" enable-background="new 0 0 595.28 841.89" xml:space="preserve" height="28" viewBox="0 0 114.99999 28" width="115" version="1.1" y="0px" x="0px" xmlns:cc="http://creativecommons.org/ns#" xmlns:dc="http://purl.org/dc/elements/1.1/"><g id="g4270" transform="matrix(.22319 0 0 .22372 -6.6176 -79.908)"><g id="g4272"><g id="g4274"><g id="g4276"><path id="path4278" fill="#fff" d="m73.438 412.6 17.258-40.466 16.568 36.519h46.292c-5.411-29.067-30.881-51.077-61.511-51.077-34.556 0-62.576 28.028-62.576 62.586 0 2.541 0.179 5.064 0.474 7.543h77.99l-17.238 40.487-16.573-36.539h-43.586c5.403 29.067 30.881 51.075 61.509 51.075 34.57 0 62.583-28.008 62.583-62.566 0-2.574-0.178-5.083-0.478-7.562h-80.712z"/></g></g><g id="g4280" fill="#fff"><path id="path4282" d="m202.56 410.9c-3.934 0-7.369-0.391-10.319-1.126-2.999-0.775-5.741-1.71-8.272-2.831v-12.188h1.147c2.576 2.182 5.397 3.877 8.474 5.051 3.104 1.16 6.099 1.751 9.001 1.751 0.727 0 1.701-0.072 2.909-0.249 1.181-0.144 2.151-0.4 2.885-0.743 0.887-0.407 1.655-0.951 2.268-1.647 0.619-0.702 0.93-1.638 0.93-2.773 0-1.286-0.504-2.356-1.52-3.14-0.99-0.8-2.196-1.367-3.595-1.752-1.742-0.455-3.589-0.902-5.581-1.31-1.957-0.408-3.835-0.927-5.538-1.511-3.973-1.407-6.802-3.276-8.514-5.644-1.725-2.374-2.563-5.314-2.563-8.879 0-4.804 2.012-8.664 6.067-11.655 4.042-2.956 9.112-4.459 15.178-4.459 3.059 0 6.082 0.303 9.105 0.942 3.027 0.608 5.711 1.471 8.094 2.518v11.695h-1.134c-1.903-1.63-4.212-2.991-6.931-4.108-2.757-1.128-5.553-1.687-8.431-1.687-1.136 0-2.135 0.08-3.045 0.241-0.879 0.159-1.832 0.462-2.789 0.917-0.809 0.368-1.503 0.919-2.078 1.646-0.593 0.697-0.881 1.52-0.881 2.398 0 1.312 0.472 2.359 1.382 3.109 0.919 0.777 2.718 1.471 5.371 2.087 1.727 0.4 3.374 0.758 4.965 1.15 1.597 0.344 3.31 0.855 5.091 1.511 3.558 1.27 6.195 2.99 7.922 5.179 1.733 2.159 2.597 5.011 2.597 8.592 0 5.068-1.992 9.184-6.011 12.261-3.987 3.112-9.382 4.654-16.184 4.654z"/><path id="path4284" d="m237.37 410.88 17.944-53.018h14.538l17.961 53.018h-13.707l-3.293-10.759h-16.777l-3.287 10.759h-13.379zm30.5-20.413-5.436-17.569-5.472 17.569h10.908z"/><path id="path4286" d="m348.26 410.88h-12.845l-20.454-37.001v37.001h-12.195v-53.05h16.372l16.915 30.391v-30.391h12.207v53.05z"/><path id="path4288" d="m391.8 412.66c-7.963 0-14.271-2.391-18.947-7.186-4.664-4.836-7.012-11.582-7.012-20.295 0-8.393 2.369-15.106 7.055-20.125 4.677-4.988 10.997-7.483 18.935-7.483 2.121 0 4.009 0.127 5.691 0.36 1.677 0.247 3.316 0.56 4.857 0.992 1.201 0.368 2.528 0.846 3.936 1.47 1.44 0.608 2.599 1.145 3.463 1.59v12.638h-1.354c-0.644-0.559-1.452-1.23-2.421-2.03-0.95-0.8-2.072-1.534-3.311-2.294-1.213-0.752-2.586-1.384-4.07-1.909-1.492-0.521-3.04-0.792-4.648-0.792-1.928 0-3.693 0.312-5.281 0.903-1.618 0.601-3.138 1.655-4.578 3.126-1.349 1.35-2.416 3.166-3.265 5.475-0.843 2.302-1.257 5.003-1.257 8.122 0 3.284 0.433 6.041 1.321 8.255 0.88 2.247 2.029 4.044 3.464 5.435 1.36 1.32 2.887 2.27 4.584 2.846 1.701 0.601 3.399 0.88 5.076 0.88 1.765 0 3.426-0.271 5.02-0.854 1.6-0.584 2.934-1.217 4.039-1.913 1.162-0.735 2.234-1.479 3.13-2.237 0.897-0.745 1.683-1.407 2.345-2.021h1.207v12.5c-0.969 0.457-2.087 0.952-3.377 1.551-1.275 0.576-2.596 1.063-3.963 1.479-1.64 0.495-3.222 0.879-4.658 1.158-1.428 0.247-3.431 0.359-5.981 0.359z"/><path id="path4290" d="m476.74 384.53c0 8.241-2.219 14.738-6.614 19.463-4.413 4.74-10.457 7.097-18.149 7.097-7.717 0-13.785-2.389-18.155-7.184-4.404-4.766-6.593-11.239-6.593-19.375 0-8.202 2.188-14.684 6.593-19.471 4.37-4.749 10.438-7.14 18.155-7.14 7.692 0 13.736 2.375 18.149 7.115 4.396 4.764 6.614 11.238 6.614 19.495zm-13.24-0.049c0-3.013-0.312-5.602-0.938-7.729-0.625-2.142-1.478-3.883-2.525-5.274-1.104-1.367-2.348-2.391-3.721-2.974-1.392-0.624-2.813-0.903-4.303-0.903-1.582 0-3.01 0.279-4.297 0.823-1.275 0.576-2.532 1.575-3.696 3.007-1.055 1.325-1.9 3.075-2.562 5.259-0.662 2.205-0.992 4.81-0.992 7.841 0 3.125 0.33 5.722 0.956 7.768 0.606 2.08 1.446 3.814 2.525 5.196 1.097 1.422 2.341 2.421 3.745 3.037 1.379 0.584 2.807 0.904 4.321 0.904 1.495 0 2.973-0.32 4.376-0.991 1.435-0.641 2.66-1.647 3.666-3.015 1.115-1.471 1.955-3.221 2.544-5.179 0.607-1.99 0.901-4.564 0.901-7.77z"/><path id="path4292" d="m544.72 410.88h-16.25l-14.79-19.487h-4.8v19.487h-13.276v-53.105h21.38c2.942 0 5.528 0.199 7.705 0.558 2.182 0.368 4.217 1.136 6.068 2.304 1.899 1.223 3.401 2.773 4.535 4.612 1.122 1.87 1.674 4.235 1.674 7.104 0 4.07-0.913 7.363-2.759 9.896-1.845 2.542-4.272 4.563-7.355 6.035l17.868 22.596zm-21.509-36.881c0-1.334-0.282-2.51-0.772-3.477-0.515-0.959-1.354-1.702-2.55-2.231-0.821-0.351-1.734-0.583-2.765-0.662-1.023-0.12-2.268-0.168-3.818-0.168h-4.426v14.372h3.812c1.845 0 3.408-0.104 4.684-0.337 1.305-0.239 2.384-0.709 3.31-1.445 0.827-0.68 1.478-1.463 1.876-2.406 0.434-0.944 0.649-2.151 0.649-3.646z"/></g><g id="g4294" fill="#fff"><path id="path4296" d="m204.25 481.69c-3.915 0-7.361-0.368-10.321-1.128-2.98-0.765-5.705-1.709-8.272-2.837v-12.156h1.174c2.567 2.181 5.405 3.86 8.459 5.019 3.109 1.192 6.082 1.783 8.999 1.783 0.735 0 1.703-0.105 2.912-0.254 1.197-0.18 2.157-0.401 2.892-0.77 0.896-0.393 1.655-0.934 2.262-1.63 0.625-0.696 0.929-1.631 0.929-2.783 0-1.301-0.51-2.331-1.503-3.131-1.014-0.802-2.224-1.392-3.629-1.751-1.718-0.448-3.589-0.896-5.562-1.303-1.974-0.416-3.814-0.928-5.564-1.521-3.951-1.399-6.769-3.293-8.513-5.643-1.704-2.364-2.558-5.338-2.558-8.872 0-4.787 2.031-8.68 6.076-11.661 4.067-2.958 9.127-4.452 15.209-4.452 3.037 0 6.083 0.318 9.09 0.95 3.003 0.608 5.713 1.446 8.094 2.512v11.686h-1.133c-1.903-1.607-4.214-3.006-6.946-4.127-2.743-1.134-5.558-1.686-8.425-1.686-1.119 0-2.152 0.088-3.031 0.256-0.894 0.152-1.822 0.473-2.821 0.92-0.798 0.367-1.477 0.904-2.061 1.631-0.591 0.711-0.879 1.518-0.879 2.413 0 1.31 0.447 2.341 1.39 3.126 0.927 0.76 2.735 1.447 5.365 2.07 1.725 0.391 3.363 0.766 4.971 1.134 1.6 0.36 3.284 0.896 5.083 1.528 3.566 1.277 6.194 3.013 7.923 5.17 1.742 2.175 2.599 5.021 2.599 8.577 0 5.102-1.992 9.2-5.99 12.285-4.023 3.103-9.416 4.645-16.219 4.645z"/><path id="path4298" d="m520.82 481.69c-3.923 0-7.361-0.368-10.334-1.128-2.967-0.765-5.713-1.709-8.257-2.837v-12.156h1.152c2.562 2.181 5.395 3.86 8.478 5.019 3.095 1.192 6.087 1.783 9.004 1.783 0.724 0 1.68-0.105 2.881-0.254 1.195-0.18 2.17-0.401 2.905-0.77 0.896-0.393 1.644-0.934 2.269-1.63 0.619-0.696 0.919-1.631 0.919-2.783 0-1.301-0.496-2.331-1.502-3.131-1.005-0.802-2.23-1.392-3.604-1.751-1.741-0.448-3.599-0.896-5.578-1.303-1.986-0.416-3.85-0.928-5.547-1.521-3.96-1.399-6.798-3.293-8.508-5.643-1.717-2.364-2.6-5.338-2.6-8.872 0-4.787 2.048-8.68 6.1-11.661 4.058-2.958 9.133-4.452 15.188-4.452 3.059 0 6.093 0.318 9.103 0.95 2.998 0.608 5.707 1.446 8.109 2.512v11.686h-1.152c-1.894-1.607-4.205-3.006-6.957-4.127-2.733-1.134-5.529-1.686-8.403-1.686-1.141 0-2.14 0.088-3.047 0.256-0.87 0.152-1.833 0.473-2.801 0.92-0.804 0.367-1.502 0.904-2.078 1.631-0.563 0.711-0.877 1.518-0.877 2.413 0 1.31 0.466 2.341 1.397 3.126 0.92 0.76 2.71 1.447 5.37 2.07 1.698 0.391 3.371 0.766 4.965 1.134 1.575 0.36 3.279 0.896 5.1 1.528 3.55 1.277 6.173 3.013 7.907 5.17 1.723 2.175 2.587 5.021 2.587 8.577 0 5.102-2.005 9.2-5.995 12.285-3.99 3.103-9.39 4.645-16.194 4.645z"/><path id="path4300" d="m493.14 455.01c0 8.257-2.213 14.737-6.633 19.47-4.419 4.733-10.463 7.105-18.144 7.105-7.724 0-13.779-2.389-18.174-7.193-4.377-4.777-6.571-11.246-6.571-19.382 0-8.211 2.194-14.684 6.571-19.447 4.395-4.764 10.45-7.155 18.174-7.155 7.681 0 13.725 2.392 18.144 7.138 4.42 4.724 6.633 11.223 6.633 19.464zm-13.253-0.025c0-3.029-0.312-5.619-0.95-7.746-0.619-2.157-1.471-3.885-2.507-5.25-1.121-1.408-2.354-2.399-3.714-3.015-1.398-0.599-2.851-0.904-4.328-0.904-1.562 0-3.01 0.273-4.272 0.832-1.306 0.576-2.525 1.561-3.721 3.014-1.054 1.318-1.899 3.078-2.568 5.26-0.649 2.19-0.956 4.812-0.956 7.834 0 3.132 0.307 5.721 0.901 7.802 0.631 2.061 1.471 3.779 2.55 5.172 1.104 1.43 2.348 2.43 3.739 3.035 1.409 0.607 2.844 0.888 4.327 0.888 1.496 0 2.967-0.312 4.396-0.952 1.397-0.646 2.629-1.653 3.671-3.037 1.085-1.486 1.943-3.196 2.538-5.186 0.612-1.975 0.894-4.557 0.894-7.747z"/><path id="path4302" d="m441.43 481.69h-16.247l-14.763-19.478h-4.812v19.478h-13.283v-53.088h21.374c2.954 0 5.52 0.207 7.717 0.567 2.177 0.365 4.205 1.118 6.062 2.278 1.915 1.238 3.414 2.751 4.53 4.636 1.109 1.854 1.661 4.213 1.661 7.113 0 4.052-0.901 7.361-2.734 9.871-1.845 2.526-4.3 4.541-7.377 6.027l17.872 22.596zm-21.515-36.896c0-1.317-0.249-2.477-0.748-3.452-0.521-0.959-1.361-1.71-2.553-2.229-0.825-0.353-1.757-0.59-2.768-0.688-1.03-0.08-2.283-0.12-3.788-0.12h-4.45v14.348h3.788c1.845 0 3.42-0.111 4.707-0.351 1.306-0.226 2.406-0.705 3.286-1.432 0.864-0.671 1.486-1.471 1.902-2.407 0.415-0.942 0.624-2.149 0.624-3.669z"/><path id="path4304" d="m234.78 481.69v-52.971h35.864v10.072h-22.621v9.303h20.824v10.154h-20.824v13.378h22.621v10.063h-35.864z"/><path id="path4306" d="m324.6 477.5c-2.293 0.933-5.271 1.829-8.922 2.731-3.644 0.871-7.267 1.327-10.791 1.327-8.208 0-14.729-2.365-19.603-7.113-4.861-4.725-7.299-11.421-7.299-20.134 0-8.17 2.438-14.725 7.299-19.648 4.873-4.939 11.523-7.393 19.971-7.393 4.357 0 7.922 0.399 10.625 1.223 2.725 0.84 5.572 1.974 8.472 3.405v12.188h-1.184c-0.616-0.479-1.535-1.176-2.709-2.078-1.168-0.895-2.326-1.638-3.46-2.262-1.303-0.752-2.808-1.406-4.512-1.926-1.716-0.552-3.53-0.808-5.455-0.808-2.213 0-4.267 0.345-6.1 1.054-1.848 0.713-3.506 1.783-4.94 3.238-1.366 1.384-2.47 3.189-3.27 5.339-0.807 2.144-1.214 4.669-1.214 7.506 0 6.131 1.523 10.64 4.582 13.54 3.064 2.894 7.224 4.364 12.517 4.364 0.478 0 1.005-0.014 1.643-0.055 0.635-0.008 1.177-0.066 1.631-0.097v-10.271h-10.093v-9.863h22.812v25.733z"/><path id="path4308" d="m358.85 482.73c-7.116 0-12.6-1.734-16.427-5.164-3.831-3.422-5.731-8.44-5.731-15.05v-33.797h13.308v33.027c0 3.671 0.687 6.42 2.081 8.211 1.372 1.798 3.625 2.709 6.77 2.709 3.059 0 5.306-0.872 6.73-2.604 1.453-1.72 2.151-4.501 2.151-8.315v-33.027h13.32v33.763c0 6.499-1.876 11.52-5.609 15.014-3.739 3.481-9.29 5.233-16.593 5.233z"/></g></g></g></svg>
