<?xml version="1.0" encoding="utf-8"?>
<!-- Generator: Adobe Illustrator 16.0.0, SVG Export Plug-In . SVG Version: 6.00 Build 0)  -->
<!DOCTYPE svg PUBLIC "-//W3C//DTD SVG 1.1//EN" "http://www.w3.org/Graphics/SVG/1.1/DTD/svg11.dtd">
<svg version="1.1" id="Layer_1" xmlns="http://www.w3.org/2000/svg" xmlns:xlink="http://www.w3.org/1999/xlink" x="0px" y="0px"
	 width="595.28px" height="841.89px" viewBox="0 0 595.28 841.89" enable-background="new 0 0 595.28 841.89" xml:space="preserve">
<g>
	<path fill-rule="evenodd" clip-rule="evenodd" fill="#888887" d="M396.114,469.031c1.592,1.415,3.183,2.829,4.774,4.243
		c0.696,0.376,1.414,0.719,1.734,1.514l0.033,0.033c2.797,0.84,4.311,3.338,6.311,5.129c2.951,2.652,6.487,4.773,8.653,8.244
		l0.032,0.043c0.764,0.465,1.758,0.686,2.045,1.725c6.078,5.504,12.134,11.018,18.234,16.488
		c5.095,4.597,10.255,9.128,15.383,13.681c0.818,0.729,1.757,1.481,0.398,2.542c-1.172,0.95-0.752,1.746,0.088,2.674
		c1.061,1.172,1.867,0.818,2.896-0.11c5.769-5.183,11.626-10.277,17.35-15.493c1.437-1.305,2.52-1.879,3.812,0
		c0.763,1.116,1.581,1.193,2.619,0.199c0.906-0.885,1.393-1.68,0.288-2.675c-1.382-1.204-1.084-2.188,0.221-3.249
		c1.923-1.592,3.713-3.338,5.658-4.906c3.47-2.84,7.193-2.608,10.211,0.641c1.768,1.9,3.47,3.857,5.083,5.879
		c2.421,3.028,2.376,5.681-0.177,8.653c-1.337,1.536-2.873,2.906-4.32,4.364c-0.642,0.841-1.536,1.426-2.244,2.211
		c-1.148,1.238-2.232,1.359-3.083-0.343c-0.188-0.198-0.364-0.387-0.541-0.597c-0.818-0.74-1.437-0.276-2.034,0.343
		c-0.629,0.641-0.397,1.26,0.056,1.878c0.586,0.797,1.193,1.592,0.364,2.598c-3.403,3.018-6.785,6.033-10.188,9.051
		c-0.575,0.885-0.983,1.945-2.232,2.145c-5.304,4.707-10.608,9.414-15.936,14.123c-0.53,0.52-0.973,1.148-1.657,1.502
		c-1.238,1.105-2.486,2.211-3.725,3.326c-0.475,0.586-0.939,1.184-1.668,1.481c-2.432,2.155-4.885,4.276-7.294,6.465
		c-1.062,0.973-2.1,1.591-3.448,0.53c-0.973-0.707-1.967-0.773-2.852,0.078c-0.795,0.762-0.431,1.602,0.045,2.397
		c1.127,1.956,0.232,3.105-1.559,3.912c-6.531,1.713-13.15,3.05-19.814,4.077c-3.006,0.476-7.271-2.906-8.111-5.89
		c-0.464-1.636,0.221-2.896,1.183-4.155c2.497-3.314,6.421-4.951,9.15-7.979c0.497-0.564,0.784-1.348,1.603-1.569
		c0.188-0.177,0.375-0.354,0.574-0.53c0.785-0.442,1.349-1.172,2.122-1.613c1.613-1.227,2.21,0.52,3.204,1.104
		c0.708,0.266,1.415,0.675,2.1-0.032c1.018-1.018,1.746-1.935,0.376-3.35c-1.017-1.039-0.354-1.988,0.663-2.895
		c5.238-4.564,10.433-9.195,15.582-13.858c0.796-0.718,2.498-1.304,1.238-2.939c-0.973-1.282-2.022-1.569-3.382-0.387
		c-1.105,0.962-1.923,0.011-2.741-0.718c-5.315-4.742-10.631-9.482-15.99-14.201c-1.183-1.05-2.498-1.956-3.758-2.939
		c-1.668-1.006-2.729-2.664-4.21-3.891c-6.432-6.066-13.04-11.945-19.858-17.582c-1.613-1.393-3.393-2.607-4.852-4.199
		c-0.221-0.199-0.42-0.387-0.641-0.574c-2.586-1.437-4.576-3.537-6.366-5.835c-2.453-2.243-4.773-4.642-7.515-6.521
		c-0.784-0.431-1.326-1.171-2.144-1.568c-0.95-0.498-1.515-1.326-1.282-2.41c0.266-1.127,1.238-1.458,2.255-1.547
		c2.851-0.199,5.702-0.11,8.542-0.077c2.465,0.022,4.984-0.52,7.371,0.542C395.253,468.435,395.694,468.7,396.114,469.031z"/>
	<path fill-rule="evenodd" clip-rule="evenodd" fill="#888787" d="M144.605,546.156c-6.42-6.101-13.007-12.013-19.798-17.692
		c-1.945-0.465-2.591-2.344-3.807-3.581c-0.713-0.729-0.37-1.669,0.464-2.298c1.47-0.918,1.371-1.835,0.149-2.94
		c-1.154-1.061-2.077-0.905-2.846,0.31c-1.166,1.834-2.315,1.414-3.63,0.177c-1.746-1.646-3.63-3.161-5.327-4.851
		c-3.608-3.625-3.674-6.631-0.381-10.455c0.52-0.607,0.956-1.271,1.437-1.912c0.332-1.082,0.939-1.922,2.045-2.32l0.011-0.021
		c1.608-3.824,6.818-5.525,10.714-2.034l-0.027-0.022c1.763,1.26,3.575,2.477,4.884,4.256c0.503,0.496,0.973,1.027,1.514,1.491
		c1.105,0.939,1.16,1.879,0.072,2.873c-1.083,1.006-1,1.856,0.166,2.852c1.216,1.017,2.05,0.707,2.868-0.397
		c1.166-1.613,2.193-1.15,3.459,0.011c3.088,2.817,6.288,5.515,9.443,8.255c2.591,0.752,3.454,3.471,5.509,4.829l-0.039-0.033
		c1.022,0.553,1.961,1.194,2.79,2.012c0.807,0.796,1.729,0.929,2.625,0.231c0.967-0.74,0.16-1.426-0.238-2.044
		c-0.851-1.304-0.751-2.299,0.812-2.917h-0.005c0.42-1.238,1.503-1.703,2.563-2.199c8.493-7.504,17.013-14.986,25.478-22.522
		c9.802-8.72,19.56-17.505,29.335-26.269c0.708-0.619,1.553-0.817,2.47-0.795c4.807,0.044,9.62,0,14.432,0.021
		c1.625,0.012,2.691,0.442,1.779,2.365c-5.852,5.184-11.703,10.365-17.554,15.56c-13.621,12.067-27.241,24.136-40.851,36.226
		c-2.199,1.945-4.326,3.979-6.486,5.967c-0.989,1.702-2.227,2.785-4.36,1.835c-0.807-0.354-1.635-0.31-2.144,0.509
		c-0.591,0.949,0.149,1.524,0.812,1.967c1.674,1.083,2.746,2.763,4.105,4.154c3.563,3.228,7.089,6.498,10.697,9.682
		c1.332,1.193,2.393,2.177,0.597,3.846c-1.155,1.072-0.553,1.979,0.497,2.873c1.089,0.928,1.956,1.16,2.824-0.199
		c1.133-1.79,2.199-1.414,3.619-0.133c3.647,3.271,7.432,6.388,11.172,9.57c1.741,1.48,3.769,3.172,2.664,5.592
		c-1.205,2.608-2.973,5.128-6.271,5.658c-3.641,0.574-7.028-0.861-10.521-1.437c-2.547-0.397-5.012-1.26-7.614-1.37
		c-2.149-0.154-4.105-0.663-5.249-2.74c-0.061-0.332-0.122-0.642-0.182-0.973c0.144-0.652,0.425-1.216,1-1.613
		c0.553-0.752,1.011-1.492,0.116-2.299c-1.432-0.42-2.862-0.862-3.984,0.641c-1.199,0.53-1.967-0.221-2.773-0.906
		c-1.52-1.304-3.067-2.574-4.598-3.867c-0.751-0.486-1.48-1.018-2.05-1.725l0.011-0.044c-1.763-0.663-2.691-2.255-3.846-3.581
		h-0.011c-2.503-1.182-4.42-3.006-5.912-5.314l-0.039-0.033C146.08,547.935,145.169,547.25,144.605,546.156z"/>
	<path fill-rule="evenodd" clip-rule="evenodd" fill="#888887" d="M418.681,314.505c-2.222,1.205-4.045,2.961-5.846,4.652
		c-4.587,4.288-9.979,7.139-15.626,9.659c-3.105,1.381-6.223,2.763-9.018,4.696c-1.084,0.763-2.001,1.105-3.039-0.011
		c-0.973-1.039-1.769-0.652-2.686,0.265c-1.006,1.017-1.006,1.79,0.077,2.641c1.028,0.796,0.63,1.514-0.144,2.177
		c-7.394,6.454-14.797,12.907-22.201,19.339c-0.642,0.751-1.592,0-2.288,0.486l-0.144-0.055l-0.121,0.066
		c-2.995-0.608-5.957,0.122-8.918,0.21c-1.945,0.066-3.879,0.375-5.681-0.641c-2.122-1.89,0.354-2.387,1.038-3.415
		c0.486-0.52,0.984-1.028,1.525-1.47c0.42-0.508,0.84-1.017,1.26-1.525l-0.011,0.022c0.331-0.199,0.663-0.409,0.995-0.608
		c0.917-0.696,1.602-1.691,2.707-2.166h-0.022c0.939-1.801,2.63-2.884,4.089-4.122c4.575-3.901,8.774-8.211,13.526-11.891
		c0.575-0.442,1.172-0.796,1.812-1.105c0.752-0.63,1.548-1.193,2.232-1.878c0.873-0.873,1.724-1.304,2.763-0.332
		c1.006,0.961,1.879,0.663,2.785-0.188c1.039-1.005,0.773-1.812-0.155-2.708c-1.281-1.193-0.021-1.878,0.686-2.564
		c4.077-3.978,8.2-7.923,12.288-11.891c0.642-0.619,1.194-1.304,1.802-1.967c0.553-1.26,1.426-2.166,2.729-2.63
		c8.034-7.736,16.058-15.472,24.08-23.207c1.127-1.304,2.354-2.52,3.646-3.647c0.929-0.928,1.846-1.834,2.774-2.751
		c0.243-0.796,1.017-1.072,1.569-1.536c0.983-0.84,2.11-1.415,2.432-2.962c0.994-4.741,2.453-5.669,7.305-5.083
		c2.133,0.862,3.503,2.564,4.796,4.354c2.044,1.702,3.006,1.503,3.503-0.862c0.464-2.188,2.11-1.215,3.227-1.138
		c9.449,0.718,18.709,2.564,27.815,5.139c7.394,2.1,14.698,4.42,21.384,8.344c1.691,1.005,3.271,2.155,4.642,3.591
		c2.21,2.343,1.812,4.862-1.16,6.188c-3.725,1.658-7.681,1.503-11.582,0.906c-9.394-1.458-17.759-5.813-26.323-9.603
		c-3.26-1.448-6.465-3.017-9.647-4.62c-1.061-0.53-1.945-0.42-2.696,0.298c-0.796,0.741-0.022,1.481,0.31,2.155
		c2.231,4.729,0.829,7.658-4.155,8.432c-0.852,0.133-1.525,0.464-2.155,0.995c-3.746,3.161-7.503,6.321-11.239,9.482
		c-0.42,1.337-1.635,1.724-2.718,2.232c-0.177,0.155-0.343,0.31-0.509,0.464c-0.221,0.729-1.105,0.663-1.48,1.216l-0.022,0.022
		c-1.26,1.845-2.829,3.326-4.929,4.155v0.011c-0.884,1.116-1.724,2.288-3.238,2.652l0.022,0.011
		C420.15,313.478,419.432,314.008,418.681,314.505z"/>
	<path fill-rule="evenodd" clip-rule="evenodd" fill="#888787" d="M209.497,301.586c6.537,6.399,13.068,12.786,19.604,19.163
		c1.205,1.183,2.388,2.387,3.658,3.492c0.917,0.807,0.939,1.613,0.31,2.553c-1.116,2.155,0.768,2.63,1.829,2.243
		c2.9-1.039,4.293,0.597,5.735,2.498c8.796,8.045,17.665,16.024,26.771,23.727c1.387,1.934,0.868,3.194-1.613,3.371
		c-3.619,0.265-7.255,0.243-10.874-0.022c-1.398-0.111-2.812-0.144-4.216-0.376c-1.282-0.199-2.155-0.696-2.564-1.945l0.005,0.022
		c-1.779-1.249-3.674-2.365-4.851-4.288h0.005c-4.802-3.205-8.896-7.206-12.841-11.36c-0.679-0.708-1.337-1.437-2.05-2.111
		c-0.795-0.729-1.083-1.47-0.144-2.244c1.188-0.95,0.835-1.757-0.071-2.641c-0.917-0.895-1.785-1.149-2.719-0.055
		c-0.823,0.951-1.641,0.729-2.58,0.088c-2.973-2.011-6.184-3.625-9.51-4.884c-8.824-3.36-15.499-9.747-22.583-15.582
		c-5.376-4.42-10.769-8.819-16.15-13.239c-1.349-0.53-2.244-1.625-3.255-2.586c-1.298-1.193-2.586-2.409-3.906-3.581
		c-1.403-1.26-2.868-2.177-4.901-2.409c-3.442-0.376-5.034-4.089-3.498-7.426c0.475-1.017,1.884-2.067,0.552-3.249
		c-1.16-1.039-2.237-0.022-3.387,0.486c-10.742,4.785-21.107,10.521-32.694,13.217c-4.05,0.928-8.128,1.138-12.195,0.199
		c-1.868-0.442-3.664-1.215-4.194-3.293c-0.558-2.188,0.917-3.514,2.409-4.708c4.906-3.89,10.631-6.188,16.472-8.155
		c11.786-3.957,23.831-6.808,36.264-7.769c1.409-0.1,3.304-0.961,3.31,1.934c0.006,1.359,2.155,1.547,3.398,0.309
		c1.138-1.127,2.155-2.387,3.354-3.437c1.569-1.381,3.42-1.979,5.454-1.094c1.95,0.84,3.149,2.332,3.221,4.52
		c0.028,0.961,0.337,1.735,1.017,2.376c7.869,7.537,15.726,15.051,23.594,22.588c0.585,0.133,0.95,0.508,1.104,1.094
		c0.172,0.166,0.354,0.332,0.525,0.497C208.297,299.907,208.839,300.813,209.497,301.586z"/>
	<g>
		<path fill="#888887" d="M296.91,500.073c-3.945-1.757-8.073-2.807-12.399-2.95c-9.233-0.299-17.643,1.547-23.406,9.603
			c-4.222,5.912-4.862,12.721-4.371,19.705c0.807,11.393,7.388,19.229,18.096,21.67c3.68,0.84,7.432,1.006,11.172,0.719
			c6.935-0.53,13.035-2.829,17.444-8.576c8.327-10.852,6.521-28.688-3.923-38.412C298.949,500.803,297.854,500.549,296.91,500.073z
			 M291.743,531.271c-1.32,3.923-4.547,5.945-9.145,5.957c-4.52,0.01-7.857-2.111-9.216-5.913c-0.939-2.63-1.326-5.359-1.205-7.868
			c-0.039-2.343,0.122-4.365,0.547-6.388c1.072-5.006,4.492-8.067,9.432-8.276c4.769-0.211,8.841,2.685,10.117,7.47
			C293.605,521.28,293.407,526.331,291.743,531.271z"/>
		<path fill="#888887" d="M410.713,511.931c-1.713-5.238-5.062-9.349-10.023-11.691c-9.205-4.365-18.775-4.598-27.926-0.154
			c-9.25,4.486-12.233,12.907-12.2,22.676c0.033,12.201,4.984,20.854,14.167,24.169c7.25,2.608,14.688,2.817,22.08,0.542
			c6.642-2.045,11.394-6.365,13.692-12.93C413.1,527.093,413.166,519.468,410.713,511.931z M396.313,529.017
			c-1.237,5.326-4.111,7.979-9.062,8.199c-5.515,0.243-8.996-2.089-10.443-7.492c-1.26-4.708-1.271-9.526,0.276-14.223
			c1.437-4.388,5.039-6.841,9.525-6.719c4.774,0.132,8.311,2.928,9.57,7.48c0.597,2.188,0.575,4.41,0.642,6.719
			C396.689,524.938,396.777,526.982,396.313,529.017z"/>
		<path fill="#888887" d="M235.455,498.028c-8.305-0.198-16.615-0.043-24.92-0.154c-2.216-0.021-2.707,0.951-2.686,2.918
			c0.078,7.338,0.028,14.653,0.028,21.98c-0.005,7.415,0.072,14.83-0.049,22.245c-0.033,2.188,0.707,3.161,2.851,3.139
			c3.481-0.022,6.962,0,10.449-0.022c1.607-0.021,2.376-0.707,2.337-2.475c-0.094-4.465,0.056-8.93-0.055-13.395
			c-0.055-2.144,0.795-2.818,2.846-2.785c3.387,0.033,6.769,0.089,10.156-0.342c12.079-1.559,18.223-14.51,11.681-24.854
			C245.164,499.643,240.533,498.15,235.455,498.028z M230.118,519.048c-5.973,1.348-6.68,0.752-6.68-5.547c0-5.77,0-5.77,5.812-5.35
			c3.559,0.266,5.708,2.045,5.973,4.951C235.521,516.362,233.963,518.187,230.118,519.048z"/>
		<path fill="#888887" d="M356.508,539.315c-0.011-3.646-0.011-3.669-3.802-3.669c-5.548-0.022-11.073,0-16.62-0.022
			c-3.725,0-3.735-0.021-3.735-3.713c-0.011-10.365-0.044-20.731,0.033-31.086c0.021-2.178-0.608-3.062-2.896-2.951
			c-3.205,0.154-6.432,0.178-9.637,0c-2.437-0.133-3.078,0.906-3.05,3.16c0.088,7.316,0.033,14.643,0.027,21.971
			c0,7.227-0.005,14.465,0,21.703c0,3.184,0.249,3.448,3.542,3.459c7.238,0.012,14.477,0.012,21.704,0.012
			c3.846,0,7.681-0.022,11.526,0c2.044,0.021,3.16-0.652,2.95-2.984C356.364,543.249,356.508,541.282,356.508,539.315z"/>
	</g>
	<g>
		<path fill="#87171A" d="M160.541,402.162c-0.486-10.653-0.32-21.351,0.21-32.037c0.078-1.559,0.221-3.293-1.652-4.133
			c-12.289,0.022-24.583,0.044-36.872,0.066c-1.447,0.464-1.619,1.79-1.923,2.961c-0.834,3.249-11.548,46.989-13.04,47.232
			c-1.586,0.266-13.123-46.083-14.316-48.061c-0.514-1.868-1.785-2.31-3.625-2.288c-9.647,0.066-19.289,0-28.937,0.044
			c-7.111,0.033-6.57-1.072-6.57,6.586c-0.011,27.959-0.022,55.929-0.027,83.877c0,3.89,0.144,4.045,4.066,4.045
			c5.36,0.011,10.72,0.011,16.08,0c3.575,0,3.718-0.155,3.718-3.846c-0.005-16.521-0.005-33.043-0.005-49.575
			c0-0.796-0.056-1.613,0.061-2.409c0.154-1.127,0.641-2.078,1.978-2.122c1.21-0.066,1.768,0.762,2.022,1.768
			c0.663,2.586,12.582,51.929,14.041,55.033c0.458,1.326,1.63,1.128,2.619,1.128c6.299,0.011,12.593-0.022,18.892-0.044
			c0.851-0.442,1.331-1.172,1.558-2.056c0.757-3.072,13.593-51.42,14.123-53.111c0.205-0.663,0.553-1.415,1.459-1.282
			c0.724,0.11,0.978,0.795,1.066,1.393c0.31,2.276,0.403,45.043,0.553,52.779c0.022,0.973,0.116,1.769,1.083,2.211l0.027,0.011
			c4.216,1.227,5.924,0.497,7.438-3.525c3.735-9.923,7.288-19.936,11.272-29.771C159.109,418.992,160.938,410.969,160.541,402.162z"
			/>
		<path fill="#87171A" d="M322.454,433.403c-1.077-5.901-1.426-11.847-1.16-17.837c0.071-1.702,0.05-3.393,0-5.083
			c-0.094-3.558-0.967-4.454-4.47-4.476c-9.643-0.055-19.284,0.033-28.921-0.055c-1.354,0-2.708,0.022-3.63,1.271
			c-0.978,5.934,0.111,18.488,0.348,18.765c1.044,0.949,2.337,0.762,3.569,0.783c4.022,0.023,8.051-0.021,12.073,0.023
			c0.856,0.021,1.79-0.133,2.398,0.795c1.514,2.32,0.359,7.294-2.116,8.642c-4.277,2.321-8.78,3.758-13.687,4.299
			c-11.007,1.227-19.765-4.553-22.284-15.15c-1.415-5.968-0.791-20.378-0.696-21.085c1.585-11.625,9.056-18.897,19.787-18.278
			c4.625-0.409,8.15,1.591,10.604,5.327c1.641,2.486,3.669,2.984,6.376,2.498c2.708-0.486,14.372-2.608,17.08-3.05
			c1.37-0.221,2.945-0.641,3.121-2.078c0.492-3.89,1.531-7.957-1.646-11.36c-7.598-8.111-18.073-11.338-18.073-11.338
			c-0.896-1.05-12.946-2.354-17.781-2.376c-30.125,0-40.342,17.715-44.828,24.478c-6.487,14.223-5.161,29.12-5.167,30.169
			c-0.039,5.018,0.591,9.924,2.354,14.632c14.626,31.584,33.479,29.76,43.579,29.76c33.761,0,45.553-12.72,46.923-13.648
			c1.624-1.326-0.155-2.52-0.166-3.801C325.653,444.498,323.283,436.585,322.454,433.403z"/>
		<path fill="#87171A" d="M411.254,418.064c-0.221-16.156-0.055-32.313-0.11-48.47c0-1.05,0.089-2.122-0.663-3.017
			c-0.928-0.652-1.978-0.652-3.05-0.652c-6.608,0.022-13.194,0-19.804,0.011c-3.979,0.011-4.11,0.166-4.11,4.254
			c0,17.295,0,34.59-0.022,51.885c-0.011,1.336-0.177,2.651-0.266,3.988c-0.618,3.293-3.281,10.632-8.553,12.786
			c-4.531,1.779-9.018,1.735-13.449-0.375c-5.581-2.752-7.99-10.896-7.99-14.908c-0.011-18.035-0.011-36.07-0.021-54.105
			c0-3.249-0.276-3.537-3.515-3.525c-7.592,0.011-15.184,0.033-22.765,0.055c-1.9,0.906-1.846,2.63-1.835,4.365
			c0.044,16.809,0.066,33.606-0.011,50.403c-0.033,5.404,0.563,10.687,1.989,15.891c3.006,9.969,15.019,26.015,34.744,26.015
			c28.036,0,32.557-5.946,37.043-10.433c3.956-10.52,7.968-21.019,11.813-31.583C410.989,419.81,411.254,418.97,411.254,418.064z"/>
		<path fill="#87171A" d="M489.992,422.595c-0.541-2.055-19.195-51.52-20.278-54.127c-0.397-0.961-0.651-2.056-1.856-2.409
			c-10.465,0-20.931-0.011-31.406-0.011c-0.675,0.199-0.896,0.796-1.172,1.359c-2.896,5.713-26.82,70.307-29.152,76.761
			c-1.625,4.508-3.901,8.796-4.586,13.614c-0.012,1.702,0.674,2.696,2.53,2.675c8.753-0.078,17.505-0.133,26.246-0.178
			c1.613-0.906,1.779-2.574,2.199-4.11c0.817-3.05,1.503-6.134,2.21-9.217c0.199-2.188,1.846-2.066,3.359-2.077
			c9.184,0,18.355,0.044,27.539-0.022c2.166,0,3.404,0.741,3.537,2.983c0.42,3.072,1.348,6.023,2.077,9.029
			c0.265,1.127,0.796,3.525,3.072,3.525c4.52,0.044,9.018,0.011,13.537,0.044c1.237,0.022,1.636-0.84,2.144-1.657
			c0.476-0.84,0.255-22.699,0.266-32.733C490.258,424.894,490.258,423.733,489.992,422.595z M459.26,424.407
			c-4.906,0.044-9.813,0.089-14.709-0.022c-2.266-0.044-2.686-1.082-1.779-3.69v-0.022c0.973-4.199,6.299-20.997,7.007-23.472
			c0.298-1.028,0.873-1.757,2.033-1.79c1.193-0.044,1.79,0.729,2.089,1.713c0.63,2.122,1.204,4.266,1.79,6.398
			c0.851,1.658,4.995,15.394,5.735,18.035C461.891,423.247,461.083,424.385,459.26,424.407z"/>
		<path fill="#87171A" d="M247.645,456.71c-3.769-3.271-7.438-6.643-10.106-10.952c-5.365-8.62-8.244-18.047-9.012-28.136
			c-0.376-4.84-0.553-9.703,0.785-14.477c0.271-0.95-11.598-32.733-12.538-35.672c-0.232-0.718-0.79-1.171-1.514-1.415
			c-8.554-0.044-17.118,0.155-25.655-0.221c-4.183-0.199-7.039,0.597-8.012,5.006c-0.9,0.575-30.468,79.556-32.551,85.136
			c-0.607,1.625-1.16,3.293,0.912,4.388c9.238,0.11,18.477,0.255,27.716-0.066c2.055-0.784,3.464-10.233,3.851-11.339
			c0.641-3.822,0.934-4.077,4.763-4.077c8.448,0,16.902,0.011,25.351,0.011c4.465,0,4.569,0.089,5.398,4.664
			c0.237,1.182,0.365,2.441,0.696,3.536c0.751,2.509,0.53,5.503,3.116,7.228c9.25,0.044,18.5,0.088,27.749,0.121
			c0.74,0,1.719,0.232,1.63-1.072C249.667,458.19,248.584,457.517,247.645,456.71z M208.408,423.303
			c0,0.973-4.471,0.828-6.426,0.828c-3.769,0-7.537-0.077-11.3-0.177h-0.011c-2.022,0,2.619-13.582,3.166-15.228l0,0
			c0,0,2.791-9.493,3.299-11.372c0.304-1.149,0.851-1.978,2.172-1.945c1.315,0.033,1.834,0.928,2.122,2.033
			c0.155,0.597,3,10.211,3.741,13.195C205.877,413.058,208.679,421.833,208.408,423.303z"/>
		<path fill="#88171A" d="M560.52,440.364c-0.011-1.336-0.088-2.729-1.69-3.281c-10.454,0.055-20.908,0.011-31.362,0.011
			c-0.619,0-1.26,0.044-1.856-0.198c-1.05-0.42-1.702-0.973-1.68-2.354c0.231-21.45,0.044-42.889,0.132-64.328
			c0.012-1.591-0.188-3.006-1.359-4.155c-8.873-0.199-17.736-0.221-26.6,0.011c-1.337,0.851-0.994,2.199-0.994,3.403
			c-0.022,29.318-0.022,58.648,0,87.955c0.011,0.817-0.442,1.79,0.486,2.453c1.116,0.774,2.387,0.575,3.625,0.575
			c12.299,0.011,24.6,0.021,36.898,0c7.67-0.022,15.328-0.089,22.998-0.133c1.436-0.631,1.392-1.956,1.414-3.184
			C560.608,451.548,560.575,445.956,560.52,440.364z"/>
		<polygon fill="#F3EFED" points="193.396,413.18 193.396,413.18 193.396,413.18 		"/>
		<polygon fill="#F3EFED" points="193.396,413.18 193.396,413.18 193.396,413.18 		"/>
	</g>
</g>
</svg>
