<?xml version="1.0" encoding="utf-8"?>
<!-- Generator: Adobe Illustrator 17.0.0, SVG Export Plug-In . SVG Version: 6.00 Build 0)  -->
<!DOCTYPE svg PUBLIC "-//W3C//DTD SVG 1.1//EN" "http://www.w3.org/Graphics/SVG/1.1/DTD/svg11.dtd">
<svg version="1.1" id="Layer_1" xmlns="http://www.w3.org/2000/svg" xmlns:xlink="http://www.w3.org/1999/xlink" x="0px" y="0px"
	 width="120px" height="120px" viewBox="0 0 120 120" enable-background="new 0 0 120 120" xml:space="preserve">
<path fill="#223C6F" d="M45.744,107.052c0,0-4.36-2.065-4.36,2.639c0,0-0.752,2.24-4.1,0.706c-3.338-1.517-9.053-6.599-9.053-10.842
	c0-0.777,0-3.933,0-8.575c2.83,0.375,3.951-1.105,4.056-1.257c20.336-2.466,19.668-29.358,19.668-29.358
	c0-23.485-10.491-33.911-21.847-34.152c-0.642-0.014-1.264-0.003-1.877,0.029c0-4.105,0-6.607,0-6.607s7.32,1.235,7.32-1.186
	c0-2.485-2.73-1.294-4.96-1.89c-2.233-0.595-4.692-0.813-5.834-6.247c-0.992-4.705-3.709-3.078-3.593-0.525
	c0.117,2.815,0.466,5.144,3.338,7.763v9.146c-4.732,0.894-8.473,2.811-10.377,3.948v-1.177c1.188-1.999,1.486-2.749,1.383-4.44
	c-0.081-1.407-1.391-2.286-1.956,0.375c-0.636,3.053-2.017,3.186-3.269,3.517c-1.256,0.328-2.793-0.331-2.793,1.056
	c0,1.363,3.13,0.308,3.13,0.308s0,48.561,0,50.953c0,2.379-2.217,5.588-4.106,6.469c-1.882,0.858-2.3-0.416-2.3-0.416
	c0-2.645-2.452-1.477-2.452-1.477c-1.87,1.339,0.085,3.211,1.889,3.346c5.302,0.372,7.29-2.247,9.465-4.552
	c3.33-3.546,1.011-5.347,1.011-5.347V35c2.623-2.225,5.708-3.985,10.377-4.713V87.81c-1.992-0.659-3.846-1.68-4.738-2.462
	c-1.561-1.365-0.048-1.914-0.048-1.914c2.689-0.749,1.306-2.218,1.306-2.218c-2.137-1.411-4.001,0.524-3.846,2.044
	c0.387,3.996,4.083,5.145,7.326,6.493v5.646c0,0-4.929,3.078,0.99,9.342c3.875,4.119,8.29,8.582,17.132,7.876
	C45.835,112.353,49.467,109.758,45.744,107.052z M29.475,29.911c8.428,0,16.245,7.937,16.245,30.209
	c0,22.301-11.173,28.26-17.41,28.26c-0.03,0-0.054-0.007-0.08-0.007c0-15.587,0-43.382,0-58.412
	C28.651,29.947,29.035,29.911,29.475,29.911z"/>
</svg>
